<svg width="24" height="24" viewBox="0 0 24 24" fill="none" xmlns="http://www.w3.org/2000/svg">
<path d="M10.0801 5.31411C10.1068 5.2234 10.1621 5.14377 10.2378 5.08714C10.3135 5.03052 10.4056 4.99994 10.5001 5H13.9999C14.0692 5.00005 14.1375 5.01656 14.1991 5.04816C14.2608 5.07976 14.314 5.12556 14.3545 5.18177C14.395 5.23799 14.4216 5.30301 14.432 5.3715C14.4425 5.43999 14.4365 5.50998 14.4146 5.57572L12.8572 10.2497H16.1873C16.2692 10.2496 16.3495 10.2726 16.419 10.3159C16.4885 10.3593 16.5445 10.4213 16.5805 10.4948C16.6165 10.5684 16.6311 10.6506 16.6227 10.7321C16.6143 10.8136 16.5832 10.8911 16.5329 10.9558L10.4082 18.8303C10.3455 18.9114 10.2563 18.9678 10.1562 18.9898C10.056 19.0118 9.95138 18.9979 9.86044 18.9507C9.7695 18.9034 9.69805 18.8256 9.65857 18.731C9.61908 18.6364 9.61407 18.531 9.6444 18.4331L11.2202 13.312H8.31273C8.24472 13.312 8.17763 13.2962 8.1168 13.2658C8.05597 13.2354 8.00307 13.1912 7.9623 13.1368C7.92153 13.0823 7.89402 13.0191 7.88195 12.9522C7.86987 12.8852 7.87358 12.8164 7.89276 12.7512L10.0801 5.31411Z" fill="#49DF64"/>
</svg>
