<svg xmlns="http://www.w3.org/2000/svg" width="24" height="24" viewBox="0 0 24 24" fill="none">
  <path d="M9.29049 6.70978C9.19779 6.80229 9.12424 6.91218 9.07406 7.03315C9.02388 7.15413 8.99805 7.28381 8.99805 7.41478C8.99805 7.54575 9.02388 7.67543 9.07406 7.7964C9.12424 7.91738 9.19779 8.02726 9.29049 8.11978L13.1705 11.9998L9.29049 15.8798C9.19791 15.9724 9.12447 16.0823 9.07436 16.2032C9.02426 16.3242 8.99847 16.4538 8.99847 16.5848C8.99847 16.7157 9.02426 16.8454 9.07436 16.9663C9.12447 17.0873 9.19791 17.1972 9.29049 17.2898C9.38307 17.3824 9.49298 17.4558 9.61395 17.5059C9.73491 17.556 9.86456 17.5818 9.99549 17.5818C10.1264 17.5818 10.2561 17.556 10.377 17.5059C10.498 17.4558 10.6079 17.3824 10.7005 17.2898L15.2905 12.6998C15.3832 12.6073 15.4567 12.4974 15.5069 12.3764C15.5571 12.2554 15.5829 12.1257 15.5829 11.9948C15.5829 11.8638 15.5571 11.7341 15.5069 11.6132C15.4567 11.4922 15.3832 11.3823 15.2905 11.2898L10.7005 6.69978C10.3205 6.31978 9.68049 6.31978 9.29049 6.70978Z" fill="white"/>
</svg>
