<svg xmlns="http://www.w3.org/2000/svg" width="25" height="24" viewBox="0 0 25 24" fill="none">
<path d="M22.8966 11.5022C21.9024 7.0074 20.4061 4.60834 18.1866 3.95302C17.72 3.81615 17.2361 3.74778 16.7499 3.75005C16.1072 3.75005 15.5475 3.90662 14.9555 4.07255C14.242 4.27271 13.4316 4.50005 12.2499 4.50005C11.0681 4.50005 10.2572 4.27318 9.54235 4.07302C8.94985 3.90662 8.39063 3.75005 7.74985 3.75005C7.24708 3.74829 6.74651 3.81644 6.26251 3.95255C4.0547 4.60505 2.55938 7.00318 1.55063 11.4994C0.465946 16.3379 0.999852 19.3927 3.04782 20.1015C3.32854 20.2004 3.62392 20.2515 3.92157 20.2524C5.32454 20.2524 6.44954 19.0838 7.21829 18.1271C8.08688 17.0443 9.1036 16.4949 12.2499 16.4949C15.06 16.4949 16.223 16.876 17.2275 18.1271C17.8589 18.9136 18.4556 19.464 19.0509 19.8104C19.8427 20.2707 20.6339 20.3729 21.4022 20.109C22.6125 19.696 23.3063 18.6043 23.4647 16.8633C23.5852 15.5283 23.3995 13.7747 22.8966 11.5022ZM9.99985 11.2501H8.49985V12.7501C8.49985 12.949 8.42083 13.1397 8.28018 13.2804C8.13953 13.421 7.94876 13.5001 7.74985 13.5001C7.55094 13.5001 7.36017 13.421 7.21952 13.2804C7.07887 13.1397 6.99985 12.949 6.99985 12.7501V11.2501H5.49985C5.30094 11.2501 5.11017 11.171 4.96952 11.0304C4.82887 10.8897 4.74985 10.699 4.74985 10.5001C4.74985 10.3011 4.82887 10.1104 4.96952 9.96973C5.11017 9.82907 5.30094 9.75006 5.49985 9.75006H6.99985V8.25005C6.99985 8.05114 7.07887 7.86038 7.21952 7.71972C7.36017 7.57907 7.55094 7.50005 7.74985 7.50005C7.94876 7.50005 8.13953 7.57907 8.28018 7.71972C8.42083 7.86038 8.49985 8.05114 8.49985 8.25005V9.75006H9.99985C10.1988 9.75006 10.3895 9.82907 10.5302 9.96973C10.6708 10.1104 10.7499 10.3011 10.7499 10.5001C10.7499 10.699 10.6708 10.8897 10.5302 11.0304C10.3895 11.171 10.1988 11.2501 9.99985 11.2501ZM13.9374 11.4376C13.7519 11.4376 13.5707 11.3826 13.4165 11.2796C13.2623 11.1765 13.1422 11.0301 13.0712 10.8588C13.0003 10.6875 12.9817 10.499 13.0179 10.3172C13.054 10.1353 13.1433 9.96825 13.2744 9.83714C13.4056 9.70603 13.5726 9.61674 13.7545 9.58057C13.9363 9.54439 14.1248 9.56296 14.2961 9.63392C14.4674 9.70487 14.6138 9.82504 14.7169 9.97921C14.8199 10.1334 14.8749 10.3146 14.8749 10.5001C14.8749 10.7487 14.7761 10.9872 14.6003 11.163C14.4245 11.3388 14.186 11.4376 13.9374 11.4376ZM15.9999 13.5001C15.8143 13.5001 15.633 13.445 15.4788 13.3419C15.3245 13.2388 15.2044 13.0922 15.1335 12.9208C15.0626 12.7493 15.0442 12.5607 15.0805 12.3788C15.1169 12.1969 15.2064 12.0298 15.3378 11.8988C15.4691 11.7678 15.6364 11.6787 15.8184 11.6428C16.0004 11.6069 16.189 11.6258 16.3602 11.6971C16.5315 11.7684 16.6778 11.8889 16.7805 12.0434C16.8832 12.1979 16.9378 12.3794 16.9374 12.5649C16.9367 12.8131 16.8377 13.051 16.6619 13.2263C16.4862 13.4016 16.2481 13.5001 15.9999 13.5001ZM15.9999 9.37505C15.8144 9.37505 15.6332 9.32007 15.479 9.21706C15.3248 9.11404 15.2047 8.96763 15.1337 8.79632C15.0628 8.62501 15.0442 8.43651 15.0804 8.25466C15.1165 8.0728 15.2058 7.90575 15.3369 7.77464C15.4681 7.64353 15.6351 7.55424 15.817 7.51807C15.9988 7.48189 16.1873 7.50046 16.3586 7.57142C16.5299 7.64237 16.6763 7.76254 16.7794 7.91671C16.8824 8.07088 16.9374 8.25213 16.9374 8.43755C16.9374 8.6862 16.8386 8.92465 16.6628 9.10047C16.487 9.27628 16.2485 9.37505 15.9999 9.37505ZM18.0624 11.4376C17.8769 11.4376 17.6957 11.3826 17.5415 11.2796C17.3873 11.1765 17.2672 11.0301 17.1962 10.8588C17.1253 10.6875 17.1067 10.499 17.1429 10.3172C17.179 10.1353 17.2683 9.96825 17.3994 9.83714C17.5306 9.70603 17.6976 9.61674 17.8795 9.58057C18.0613 9.54439 18.2498 9.56296 18.4211 9.63392C18.5924 9.70487 18.7388 9.82504 18.8419 9.97921C18.9449 10.1334 18.9999 10.3146 18.9999 10.5001C18.9999 10.7487 18.9011 10.9872 18.7253 11.163C18.5494 11.3388 18.311 11.4376 18.0624 11.4376Z" fill="#72C0EC"/>
</svg>
