<svg xmlns="http://www.w3.org/2000/svg" width="23" height="18" viewBox="0 0 23 18" fill="none">
<path d="M22.3971 8.50224C21.4028 4.0074 19.9066 1.60834 17.6871 0.953024C17.2205 0.816152 16.7365 0.747782 16.2503 0.750055C15.6077 0.750055 15.048 0.906617 14.456 1.07255C13.7425 1.27271 12.9321 1.50005 11.7503 1.50005C10.5686 1.50005 9.75768 1.27318 9.04284 1.07302C8.45034 0.906617 7.89112 0.750055 7.25034 0.750055C6.74757 0.748287 6.247 0.81644 5.763 0.952555C3.55518 1.60505 2.05987 4.00318 1.05112 8.49943C-0.0335658 13.3379 0.50034 16.3927 2.54831 17.1015C2.82903 17.2004 3.1244 17.2515 3.42206 17.2524C4.82503 17.2524 5.95003 16.0838 6.71878 15.1271C7.58737 14.0443 8.60409 13.4949 11.7503 13.4949C14.5605 13.4949 15.7235 13.876 16.728 15.1271C17.3594 15.9136 17.9561 16.464 18.5514 16.8104C19.3432 17.2707 20.1344 17.3729 20.9027 17.109C22.113 16.696 22.8067 15.6043 22.9652 13.8633C23.0857 12.5283 22.9 10.7747 22.3971 8.50224ZM9.50034 8.25006H8.00034V9.75006C8.00034 9.94897 7.92132 10.1397 7.78067 10.2804C7.64002 10.421 7.44925 10.5001 7.25034 10.5001C7.05143 10.5001 6.86066 10.421 6.72001 10.2804C6.57936 10.1397 6.50034 9.94897 6.50034 9.75006V8.25006H5.00034C4.80143 8.25006 4.61066 8.17104 4.47001 8.03039C4.32936 7.88973 4.25034 7.69897 4.25034 7.50006C4.25034 7.30114 4.32936 7.11038 4.47001 6.96973C4.61066 6.82907 4.80143 6.75006 5.00034 6.75006H6.50034V5.25005C6.50034 5.05114 6.57936 4.86038 6.72001 4.71972C6.86066 4.57907 7.05143 4.50005 7.25034 4.50005C7.44925 4.50005 7.64002 4.57907 7.78067 4.71972C7.92132 4.86038 8.00034 5.05114 8.00034 5.25005V6.75006H9.50034C9.69925 6.75006 9.89002 6.82907 10.0307 6.96973C10.1713 7.11038 10.2503 7.30114 10.2503 7.50006C10.2503 7.69897 10.1713 7.88973 10.0307 8.03039C9.89002 8.17104 9.69925 8.25006 9.50034 8.25006ZM13.4378 8.43756C13.2524 8.43756 13.0712 8.38257 12.917 8.27956C12.7628 8.17654 12.6427 8.03013 12.5717 7.85882C12.5007 7.68752 12.4822 7.49901 12.5184 7.31716C12.5545 7.1353 12.6438 6.96825 12.7749 6.83714C12.906 6.70603 13.0731 6.61674 13.2549 6.58057C13.4368 6.54439 13.6253 6.56296 13.7966 6.63392C13.9679 6.70487 14.1143 6.82504 14.2173 6.97921C14.3204 7.13338 14.3753 7.31464 14.3753 7.50006C14.3753 7.7487 14.2766 7.98715 14.1008 8.16297C13.9249 8.33878 13.6865 8.43756 13.4378 8.43756ZM15.5003 10.5001C15.3148 10.5001 15.1335 10.445 14.9793 10.3419C14.825 10.2388 14.7049 10.0922 14.634 9.92078C14.5631 9.74934 14.5447 9.56072 14.581 9.37879C14.6174 9.19687 14.7069 9.02983 14.8383 8.89881C14.9696 8.7678 15.1369 8.67869 15.3189 8.64278C15.5009 8.60688 15.6895 8.62578 15.8607 8.69709C16.032 8.76841 16.1783 8.88894 16.281 9.04342C16.3837 9.19789 16.4383 9.37938 16.4378 9.5649C16.4372 9.81313 16.3382 10.051 16.1624 10.2263C15.9867 10.4016 15.7486 10.5001 15.5003 10.5001ZM15.5003 6.37505C15.3149 6.37505 15.1337 6.32007 14.9795 6.21706C14.8253 6.11404 14.7052 5.96763 14.6342 5.79632C14.5632 5.62501 14.5447 5.43651 14.5809 5.25466C14.617 5.0728 14.7063 4.90575 14.8374 4.77464C14.9685 4.64353 15.1356 4.55424 15.3174 4.51807C15.4993 4.48189 15.6878 4.50046 15.8591 4.57142C16.0304 4.64237 16.1768 4.76254 16.2798 4.91671C16.3829 5.07088 16.4378 5.25213 16.4378 5.43755C16.4378 5.6862 16.3391 5.92465 16.1633 6.10047C15.9874 6.27628 15.749 6.37505 15.5003 6.37505ZM17.5628 8.43756C17.3774 8.43756 17.1962 8.38257 17.042 8.27956C16.8878 8.17654 16.7677 8.03013 16.6967 7.85882C16.6257 7.68752 16.6072 7.49901 16.6434 7.31716C16.6795 7.1353 16.7688 6.96825 16.8999 6.83714C17.031 6.70603 17.1981 6.61674 17.3799 6.58057C17.5618 6.54439 17.7503 6.56296 17.9216 6.63392C18.0929 6.70487 18.2393 6.82504 18.3423 6.97921C18.4454 7.13338 18.5003 7.31464 18.5003 7.50006C18.5003 7.7487 18.4016 7.98715 18.2258 8.16297C18.0499 8.33878 17.8115 8.43756 17.5628 8.43756Z" fill="white"/>
</svg>
