<svg width="28" height="28" viewBox="0 0 28 28" fill="none" xmlns="http://www.w3.org/2000/svg">
<g clip-path="url(#clip0_684_10035)">
<path d="M0.871094 18.8707C2.8492 24.2018 7.9808 28.0011 14.0003 28.0011C20.0198 28.0011 25.1514 24.2018 27.1295 18.8707L14.0003 17.6533L0.871094 18.8707Z" fill="#FFDA44"/>
<path d="M14.0003 0.000976562C7.9808 0.000976562 2.8492 3.80023 0.871094 9.13144L14.0003 10.3488L27.1295 9.13138C25.1514 3.80023 20.0198 0.000976562 14.0003 0.000976562Z" fill="black"/>
<path d="M0.870789 9.13184C0.308055 10.6485 0 12.2889 0 14.0014C0 15.7139 0.308055 17.3543 0.870789 18.8709H27.1293C27.692 17.3543 28 15.7139 28 14.0014C28 12.2889 27.692 10.6485 27.1292 9.13184H0.870789Z" fill="#D80027"/>
</g>
<rect x="0.5" y="0.500977" width="27" height="27" rx="13.5" stroke="white" stroke-opacity="0.1"/>
<defs>
<clipPath id="clip0_684_10035">
<rect y="0.000976562" width="28" height="28" rx="14" fill="white"/>
</clipPath>
</defs>
</svg>
