<svg width="40" height="40" viewBox="0 0 40 40" fill="none" xmlns="http://www.w3.org/2000/svg">
<g clip-path="url(#clip0_1491_31235)">
<path d="M20 40C31.0457 40 40 31.0457 40 20C40 8.95431 31.0457 0 20 0C8.95431 0 0 8.95431 0 20C0 31.0457 8.95431 40 20 40Z" fill="#AF51DE"/>
<path d="M15.5 20C17.918 20 19.875 18.043 19.875 15.625C19.875 13.207 17.918 11.25 15.5 11.25C13.082 11.25 11.125 13.207 11.125 15.625C11.125 18.043 13.082 20 15.5 20ZM18.5 21.25H18.1758C17.3633 21.6406 16.4609 21.875 15.5 21.875C14.5391 21.875 13.6406 21.6406 12.8242 21.25H12.5C10.0156 21.25 8 23.2656 8 25.75V26.875C8 27.9102 8.83984 28.75 9.875 28.75H21.125C22.1602 28.75 23 27.9102 23 26.875V25.75C23 23.2656 20.9844 21.25 18.5 21.25ZM26.75 20C28.8203 20 30.5 18.3203 30.5 16.25C30.5 14.1797 28.8203 12.5 26.75 12.5C24.6797 12.5 23 14.1797 23 16.25C23 18.3203 24.6797 20 26.75 20ZM28.625 21.25H28.4766C27.9336 21.4375 27.3594 21.5625 26.75 21.5625C26.1406 21.5625 25.5664 21.4375 25.0234 21.25H24.875C24.0781 21.25 23.3438 21.4805 22.6992 21.8516C23.6523 22.8789 24.25 24.2422 24.25 25.75V27.25C24.25 27.3359 24.2305 27.418 24.2266 27.5H31.125C32.1602 27.5 33 26.6602 33 25.625C33 23.207 31.043 21.25 28.625 21.25Z" fill="white"/>
</g>
<defs>
<clipPath id="clip0_1491_31235">
<rect width="40" height="40" fill="white"/>
</clipPath>
</defs>
</svg>
