<svg xmlns="http://www.w3.org/2000/svg" width="12" height="13" viewBox="0 0 12 13" fill="none">
<path d="M4.62259 1.48558C4.64259 1.41755 4.68409 1.35783 4.74087 1.31536C4.79765 1.27289 4.86667 1.24996 4.93757 1.25H7.56242C7.61438 1.25004 7.66559 1.26242 7.71183 1.28612C7.75807 1.30982 7.79802 1.34417 7.82839 1.38633C7.85876 1.42849 7.87869 1.47726 7.88652 1.52863C7.89436 1.57999 7.88988 1.63249 7.87346 1.68179L6.70541 5.18727H9.20295C9.26439 5.18722 9.32461 5.20443 9.37675 5.23694C9.42889 5.26945 9.47086 5.31594 9.49787 5.37113C9.52488 5.42631 9.53586 5.48798 9.52954 5.5491C9.52323 5.61021 9.49988 5.66833 9.46215 5.71683L4.86867 11.6227C4.82162 11.6835 4.75471 11.7259 4.67962 11.7424C4.60453 11.7589 4.52604 11.7485 4.45783 11.713C4.38962 11.6775 4.33604 11.6192 4.30643 11.5483C4.27681 11.4773 4.27305 11.3982 4.2958 11.3248L5.47764 7.484H3.29705C3.24604 7.48403 3.19572 7.47217 3.1501 7.44935C3.10447 7.42654 3.0648 7.3934 3.03422 7.35257C3.00365 7.31173 2.98301 7.26434 2.97396 7.21413C2.96491 7.16393 2.96768 7.11231 2.98207 7.06337L4.62259 1.48558Z" fill="#F3F084"/>
</svg>
