<svg width="60" height="60" viewBox="0 0 60 60" fill="none" xmlns="http://www.w3.org/2000/svg">
<g clip-path="url(#clip0_1492_45321)">
<g filter="url(#filter0_d_1492_45321)">
<path d="M29.5817 6C34.8517 6 37.4917 17.48 39.8817 18.42C42.2617 19.36 53.4517 18.75 54.6217 23.17C55.7817 27.6 46.2517 33.73 45.6217 37.13C44.9917 40.54 49.2217 49.88 46.0617 52.94C42.8917 56.01 33.4917 47.56 29.8617 47.56C26.2317 47.56 16.8317 56.01 13.6617 52.94C10.5017 49.88 14.7317 40.54 14.1017 37.13C13.4717 33.73 3.9417 27.6 5.1017 23.17C6.2717 18.75 17.4617 19.36 19.8417 18.42C22.2317 17.48 24.3017 6 29.5817 6Z" fill="#DB8510"/>
<path d="M29.582 5.5C31.0955 5.50012 32.3712 6.32679 33.4424 7.46582C34.5143 8.60563 35.4378 10.1172 36.251 11.6191C36.6591 12.373 37.0447 13.134 37.4082 13.8516C37.7731 14.5718 38.1154 15.2467 38.4434 15.8418C38.7723 16.4388 39.0775 16.9381 39.3652 17.3115C39.6623 17.697 39.896 17.8888 40.0645 17.9551H40.0654C40.3071 18.0505 40.6945 18.1376 41.2256 18.2188C41.7482 18.2986 42.3744 18.3674 43.0752 18.4395C44.4685 18.5826 46.1459 18.7345 47.7842 18.9961C49.4188 19.2571 51.0563 19.633 52.3701 20.2412C53.5965 20.809 54.6211 21.6183 55.0312 22.8008L55.1055 23.042V23.043C55.4464 24.3451 54.9871 25.707 54.2236 26.9971C53.4546 28.2965 52.3207 29.6167 51.1602 30.875C49.9825 32.1518 48.7937 33.348 47.8359 34.4629C47.3612 35.0155 46.9595 35.5311 46.6592 36.0039C46.3562 36.481 46.1754 36.8858 46.1133 37.2207C45.9748 37.97 46.1003 39.1064 46.3604 40.5176C46.4883 41.2116 46.6448 41.9517 46.8066 42.7207C46.968 43.4875 47.135 44.2825 47.2822 45.0752C47.5755 46.6548 47.7975 48.2617 47.7373 49.6797C47.6774 51.0904 47.3343 52.403 46.4092 53.2988C45.4213 54.2555 44.0071 54.2504 42.5771 53.8779C41.1302 53.5009 39.4987 52.7064 37.8965 51.8408C36.2612 50.9574 34.6943 50.0226 33.249 49.2764C32.5364 48.9084 31.8796 48.6015 31.2969 48.3867C30.7079 48.1696 30.2285 48.0596 29.8613 48.0596C29.4943 48.0596 29.0154 48.1698 28.4268 48.3867C27.8441 48.6015 27.1872 48.9084 26.4746 49.2764C25.0294 50.0226 23.4623 50.9574 21.8271 51.8408C20.2247 52.7065 18.5926 53.501 17.1455 53.8779C15.7157 54.2504 14.3013 54.2555 13.3135 53.2988C12.3886 52.403 12.0462 51.0902 11.9863 49.6797C11.9262 48.2617 12.1481 46.6548 12.4414 45.0752C12.5886 44.2825 12.7556 43.4875 12.917 42.7207C13.0788 41.9517 13.2344 41.2116 13.3623 40.5176C13.6224 39.1063 13.7488 37.9701 13.6104 37.2207C13.5482 36.8858 13.3674 36.4809 13.0645 36.0039C12.7642 35.5311 12.3624 35.0155 11.8877 34.4629C10.9299 33.348 9.74023 32.1519 8.5625 30.875C7.40208 29.6169 6.26894 28.2964 5.5 26.9971C4.73657 25.707 4.27721 24.3451 4.61816 23.043V23.042C4.96626 21.727 6.04541 20.8468 7.35352 20.2412C8.66736 19.633 10.3048 19.2571 11.9395 18.9961C13.5775 18.7346 15.2543 18.5826 16.6475 18.4395C17.3481 18.3675 17.9745 18.2986 18.4971 18.2188C19.0283 18.1376 19.4165 18.0505 19.6582 17.9551H19.6592C19.8224 17.8907 20.0461 17.7038 20.3262 17.3213C20.5977 16.9504 20.8812 16.4529 21.1836 15.8564C21.4848 15.2623 21.7954 14.5883 22.127 13.8682C22.4571 13.1509 22.807 12.3899 23.1797 11.6357C23.922 10.1336 24.7751 8.61903 25.7959 7.47559C26.818 6.33068 28.0621 5.5 29.582 5.5Z" stroke="black"/>
</g>
<path d="M35.9383 47.4696C33.1683 45.9096 30.3083 44.2696 29.5183 44.2696C28.7283 44.2696 25.3983 45.6896 22.6283 47.2496C20.4583 48.4696 17.3083 50.3496 15.9183 49.3996C14.5283 48.4496 15.5983 44.8896 16.0883 42.5796C16.6183 40.0696 17.6683 36.4596 17.2083 35.5196C16.5983 34.2796 14.1683 32.4096 12.0283 30.1396C10.4183 28.4396 7.53832 25.6796 8.08832 23.9596C8.63832 22.2396 14.5283 21.8496 16.5183 21.6496C18.4383 21.4596 21.5383 21.2796 22.3383 20.5296C23.0383 19.8696 23.7383 18.2096 25.0183 15.4496C26.0983 13.0996 28.1383 9.34961 29.8583 9.34961C31.5783 9.34961 33.4783 13.0696 34.6983 15.4696C36.0683 18.1696 37.7383 20.7296 38.1983 21.1196C38.6583 21.5096 40.8183 21.6296 42.7383 21.8296C44.7283 22.0296 49.6883 21.8296 50.7183 23.7496C51.7483 25.6696 48.3983 28.4996 46.7883 30.1996C44.6483 32.4596 42.5683 34.3396 42.0683 35.2796C41.7483 36.5096 42.4783 38.8796 42.9983 41.3796C43.4783 43.6596 44.8183 48.2696 43.4383 49.3096C42.0583 50.3496 38.0983 48.6896 35.9283 47.4596L35.9383 47.4696Z" fill="white" style="mix-blend-mode:soft-light"/>
<g filter="url(#filter1_dd_1492_45321)">
<path d="M27.4242 26.864V24.32H31.8562V36H29.0082V26.864H27.4242Z" fill="white"/>
</g>
</g>
<defs>
<filter id="filter0_d_1492_45321" x="-1.99609" y="-1" width="63.7148" height="61.6113" filterUnits="userSpaceOnUse" color-interpolation-filters="sRGB">
<feFlood flood-opacity="0" result="BackgroundImageFix"/>
<feColorMatrix in="SourceAlpha" type="matrix" values="0 0 0 0 0 0 0 0 0 0 0 0 0 0 0 0 0 0 127 0" result="hardAlpha"/>
<feOffset/>
<feGaussianBlur stdDeviation="3"/>
<feComposite in2="hardAlpha" operator="out"/>
<feColorMatrix type="matrix" values="0 0 0 0 0 0 0 0 0 0 0 0 0 0 0 0 0 0 0.85 0"/>
<feBlend mode="normal" in2="BackgroundImageFix" result="effect1_dropShadow_1492_45321"/>
<feBlend mode="normal" in="SourceGraphic" in2="effect1_dropShadow_1492_45321" result="shape"/>
</filter>
<filter id="filter1_dd_1492_45321" x="26.4258" y="24.0203" width="6.42969" height="13.6797" filterUnits="userSpaceOnUse" color-interpolation-filters="sRGB">
<feFlood flood-opacity="0" result="BackgroundImageFix"/>
<feColorMatrix in="SourceAlpha" type="matrix" values="0 0 0 0 0 0 0 0 0 0 0 0 0 0 0 0 0 0 127 0" result="hardAlpha"/>
<feOffset dy="0.5"/>
<feComposite in2="hardAlpha" operator="out"/>
<feColorMatrix type="matrix" values="0 0 0 0 0.00392157 0 0 0 0 0.00392157 0 0 0 0 0.054902 0 0 0 1 0"/>
<feBlend mode="normal" in2="BackgroundImageFix" result="effect1_dropShadow_1492_45321"/>
<feColorMatrix in="SourceAlpha" type="matrix" values="0 0 0 0 0 0 0 0 0 0 0 0 0 0 0 0 0 0 127 0" result="hardAlpha"/>
<feOffset dy="0.7"/>
<feGaussianBlur stdDeviation="0.5"/>
<feComposite in2="hardAlpha" operator="out"/>
<feColorMatrix type="matrix" values="0 0 0 0 0.00392157 0 0 0 0 0.00392157 0 0 0 0 0.054902 0 0 0 1 0"/>
<feBlend mode="normal" in2="effect1_dropShadow_1492_45321" result="effect2_dropShadow_1492_45321"/>
<feBlend mode="normal" in="SourceGraphic" in2="effect2_dropShadow_1492_45321" result="shape"/>
</filter>
<clipPath id="clip0_1492_45321">
<rect width="60" height="60" fill="white"/>
</clipPath>
</defs>
</svg>
