<svg xmlns="http://www.w3.org/2000/svg" width="25" height="24" viewBox="0 0 25 24" fill="none">
<path d="M19.75 7H5.75C5.48478 7 5.23043 7.10536 5.04289 7.29289C4.85536 7.48043 4.75 7.73478 4.75 8V21C4.75 21.2652 4.85536 21.5196 5.04289 21.7071C5.23043 21.8946 5.48478 22 5.75 22H19.75C20.0152 22 20.2696 21.8946 20.4571 21.7071C20.6446 21.5196 20.75 21.2652 20.75 21V8C20.75 7.73478 20.6446 7.48043 20.4571 7.29289C20.2696 7.10536 20.0152 7 19.75 7Z" fill="white" stroke="white" stroke-width="2" stroke-linecap="round" stroke-linejoin="round"/>
<path d="M9.25 9V5.5C9.25 5.04037 9.34053 4.58525 9.51642 4.16061C9.69231 3.73597 9.95012 3.35013 10.2751 3.02513C10.6001 2.70012 10.986 2.44231 11.4106 2.26642C11.8352 2.09053 12.2904 2 12.75 2C13.2096 2 13.6648 2.09053 14.0894 2.26642C14.514 2.44231 14.8999 2.70012 15.2249 3.02513C15.5499 3.35013 15.8077 3.73597 15.9836 4.16061C16.1595 4.58525 16.25 5.04037 16.25 5.5V9" stroke="white" stroke-width="2" stroke-linecap="round" stroke-linejoin="round"/>
</svg>
