<svg width="25" height="24" viewBox="0 0 25 24" fill="none" xmlns="http://www.w3.org/2000/svg">
<path d="M21.9784 6.85195L19.8521 3.48613C19.6628 3.18555 19.3251 3 18.9651 3H5.72451C5.36455 3 5.02686 3.18555 4.8376 3.48613L2.70752 6.85195C1.60909 8.58867 2.58135 11.0045 4.6335 11.2828C4.78194 11.3014 4.93409 11.3125 5.08252 11.3125C6.05108 11.3125 6.91201 10.8895 7.50205 10.2363C8.09209 10.8895 8.95303 11.3125 9.92159 11.3125C10.8901 11.3125 11.7511 10.8895 12.3411 10.2363C12.9312 10.8895 13.7921 11.3125 14.7606 11.3125C15.7329 11.3125 16.5901 10.8895 17.1802 10.2363C17.7739 10.8895 18.6312 11.3125 19.5997 11.3125C19.7519 11.3125 19.9003 11.3014 20.0487 11.2828C22.1083 11.0082 23.0843 8.59238 21.9821 6.85195H21.9784ZM20.2009 12.4592H20.1972C20.0005 12.4852 19.8001 12.5 19.596 12.5C19.1358 12.5 18.6942 12.4295 18.2823 12.3033V17.25H6.40733V12.2996C5.9917 12.4295 5.54639 12.5 5.08623 12.5C4.88213 12.5 4.67803 12.4852 4.48135 12.4592H4.47764C4.32549 12.4369 4.17705 12.4109 4.03233 12.3738V19.625C4.03233 20.935 5.09737 22 6.40733 22H18.2823C19.5923 22 20.6573 20.935 20.6573 19.625V12.3738C20.5089 12.4109 20.3605 12.4406 20.2009 12.4592Z" fill="#3B82F6"/>
</svg>
