<svg xmlns="http://www.w3.org/2000/svg" width="24" height="24" viewBox="0 0 24 24" fill="none">
<g clip-path="url(#clip0_1253_23325)">
<path d="M12.5943 4.36588L14.5148 8.36817C14.5967 8.50976 14.7242 8.67967 14.8516 8.77406C15.5433 9.29323 18.2285 9.19883 19.2479 9.50089C20.2673 9.80295 20.0034 10.2655 19.8577 10.8602L16.5719 14.3433C16.4627 15.7025 16.9542 17.194 16.9906 18.5438C17.027 19.8936 16.5628 20.224 15.5342 19.8653C14.351 19.45 13.1677 18.3267 11.9389 17.9491L8.16156 19.8747C7.57903 20.1202 6.92368 19.4028 6.92368 18.8459C6.92368 18.2889 7.20584 16.5804 7.41519 16.0707C8.06144 14.5226 10.8922 13.7486 12.2302 12.8519C13.5682 11.9551 12.485 12.446 12.1301 12.4648C10.4007 12.5498 7.52442 13.6825 6.03168 12.7291C5.6949 12.512 4.28408 11.3227 4.12934 11.0206C3.78346 10.341 4.16575 9.66136 4.86661 9.48201C6.15911 9.16108 7.71556 9.29323 9.00805 8.86846C9.14459 8.75518 9.2265 8.58528 9.31752 8.43425C9.92736 7.38648 10.5736 5.31926 11.2472 4.4886C11.9207 3.65793 12.1392 4.07327 12.5852 4.37532L12.5943 4.36588Z" fill="#AFB0B0"/>
</g>
<defs>
<clipPath id="clip0_1253_23325">
<rect width="24" height="24" fill="#AFB0B0"/>
</clipPath>
</defs>
</svg>
