<svg xmlns="http://www.w3.org/2000/svg" width="28" height="29" viewBox="0 0 28 29" fill="none">
<g clip-path="url(#clip0_1492_32247)">
<circle cx="14" cy="14.5" r="14" fill="#F3F084" fill-opacity="0.25"/>
<path d="M14.3557 6.84302L16.2229 10.5952C16.3026 10.7279 16.4264 10.8872 16.5503 10.9757C17.2229 11.4624 19.8335 11.3739 20.8246 11.6571C21.8157 11.9403 21.5591 12.3739 21.4175 12.9314L18.2229 16.1968C18.1167 17.4711 18.5945 18.8693 18.6299 20.1348C18.6653 21.4003 18.214 21.71 17.214 21.3737C16.0636 20.9843 14.9132 19.9313 13.7185 19.5773L10.046 21.3826C9.47967 21.6127 8.84252 20.9401 8.84252 20.418C8.84252 19.8959 9.11685 18.2941 9.32038 17.8163C9.94869 16.365 12.7009 15.6393 14.0017 14.7986C15.3026 13.9579 14.2495 14.4181 13.9044 14.4358C12.223 14.5154 9.42658 15.5774 7.97528 14.6836C7.64785 14.48 6.27619 13.365 6.12575 13.0818C5.78948 12.4447 6.16115 11.8075 6.84255 11.6394C8.09917 11.3385 9.61241 11.4624 10.869 11.0642C11.0018 10.958 11.0814 10.7987 11.1699 10.6571C11.7628 9.67482 12.3911 7.73681 13.046 6.95806C13.7008 6.17931 13.9132 6.56869 14.3468 6.85187L14.3557 6.84302Z" fill="#F3F084"/>
</g>
<defs>
<clipPath id="clip0_1492_32247">
<rect width="28" height="28" fill="white" transform="translate(0 0.5)"/>
</clipPath>
</defs>
</svg>
