<svg xmlns="http://www.w3.org/2000/svg" width="17" height="16" viewBox="0 0 17 16" fill="none">
<path d="M16.6798 3.33938L9.26973 15.5201C9.17908 15.6676 9.05369 15.789 8.90526 15.8729C8.75684 15.9569 8.59023 16.0006 8.421 16C8.25177 15.9994 8.08545 15.9546 7.93757 15.8696C7.78969 15.7847 7.66509 15.6624 7.5754 15.5143L0.309792 3.33353C0.105867 2.99255 -0.00144735 2.59943 1.47431e-05 2.19871C0.00871621 1.60674 0.244836 1.04258 0.656444 0.630302C1.06805 0.218024 1.62144 -0.00860797 2.1949 0.000250241H14.8146C16.0206 -0.000724686 17 0.980053 17 2.19286C17 2.59551 16.8904 2.99328 16.6798 3.33938ZM2.09479 2.92991L7.49984 11.5346V2.06417H2.65957C2.10046 2.06417 1.85018 2.44634 2.09479 2.93186M9.49923 11.5366L14.9062 2.92991C15.1564 2.44537 14.9005 2.06222 14.3404 2.06222H9.50112L9.49923 11.5366Z" fill="#AFB0B0"/>
</svg>
