<svg width="40" height="40" viewBox="0 0 40 40" fill="none" xmlns="http://www.w3.org/2000/svg">
  <g clip-path="url(#clip0_9_1414)">
    <circle cx="20" cy="20" r="20" fill="white" fill-opacity="0.2"/>
    <path d="M28.3305 14.6943L28.7505 13.3173C28.7889 13.1917 28.8517 13.0749 28.9352 12.9735C29.0188 12.8722 29.1215 12.7883 29.2374 12.7266C29.3534 12.665 29.4804 12.6267 29.6112 12.6142C29.7419 12.6016 29.8739 12.6149 29.9995 12.6533C30.1251 12.6917 30.2419 12.7545 30.3432 12.838C30.4446 12.9216 30.5285 13.0243 30.5901 13.1403C30.6518 13.2562 30.69 13.3832 30.7026 13.514C30.7152 13.6447 30.7019 13.7767 30.6635 13.9023L29.4935 17.7273C29.4159 17.9808 29.2409 18.1931 29.0069 18.3176C28.7729 18.4421 28.499 18.4686 28.2455 18.3913L24.4205 17.2213C24.2922 17.1852 24.1725 17.1238 24.0683 17.0408C23.9641 16.9578 23.8776 16.8548 23.8137 16.7379C23.7499 16.621 23.71 16.4925 23.6966 16.3599C23.6831 16.2274 23.6962 16.0935 23.7352 15.9661C23.7741 15.8387 23.8382 15.7204 23.9235 15.6181C24.0089 15.5158 24.1138 15.4316 24.2321 15.3704C24.3504 15.3092 24.4798 15.2723 24.6126 15.2618C24.7454 15.2513 24.879 15.2674 25.0055 15.3093L26.6775 15.8203C25.9383 14.6992 24.9073 13.801 23.6955 13.2224C22.4837 12.6438 21.137 12.4067 19.8005 12.5368C18.464 12.6668 17.1883 13.159 16.1107 13.9603C15.0332 14.7616 14.1947 15.8417 13.6855 17.0843L13.4255 17.7173C13.3782 17.8422 13.3063 17.9565 13.2142 18.0532C13.122 18.1499 13.0114 18.2272 12.8889 18.2804C12.7663 18.3337 12.6344 18.3619 12.5008 18.3633C12.3672 18.3647 12.2347 18.3393 12.1111 18.2887C11.9874 18.238 11.8752 18.1631 11.781 18.0684C11.6868 17.9736 11.6126 17.861 11.5626 17.737C11.5127 17.6131 11.4881 17.4805 11.4903 17.3469C11.4925 17.2133 11.5215 17.0815 11.5755 16.9593L11.8355 16.3263C12.4817 14.7496 13.5452 13.3786 14.9117 12.3607C16.2783 11.3428 17.8963 10.7163 19.5921 10.5485C21.2878 10.3807 22.9972 10.678 24.5367 11.4084C26.0763 12.1388 27.3878 13.2748 28.3305 14.6943ZM12.8085 25.3073L12.4815 26.6183C12.4522 26.7483 12.3973 26.8712 12.3198 26.9796C12.2424 27.0881 12.1441 27.18 12.0307 27.25C11.9172 27.3199 11.7909 27.3665 11.6592 27.3869C11.5276 27.4074 11.3931 27.4013 11.2638 27.369C11.1345 27.3367 11.0129 27.279 10.9063 27.1991C10.7996 27.1192 10.71 27.0187 10.6427 26.9037C10.5754 26.7887 10.5318 26.6613 10.5144 26.5292C10.497 26.3971 10.5062 26.2628 10.5415 26.1343L11.5085 22.2543C11.5411 22.1222 11.6003 21.9981 11.6826 21.8897C11.7648 21.7813 11.8683 21.6908 11.9867 21.6238C12.1051 21.5567 12.236 21.5146 12.3713 21.4999C12.5066 21.4852 12.6434 21.4983 12.7735 21.5383L16.6015 22.4923C16.8589 22.5565 17.0802 22.7203 17.2168 22.9477C17.3535 23.175 17.3941 23.4474 17.33 23.7048C17.2658 23.9622 17.102 24.1835 16.8746 24.3202C16.6472 24.4568 16.3749 24.4975 16.1175 24.4333L14.3315 23.9883C15.095 25.1571 16.1742 26.0856 17.444 26.6659C18.7138 27.2462 20.1221 27.4547 21.5055 27.2671C22.889 27.0795 24.1909 26.5036 25.2603 25.6061C26.3297 24.7085 27.1228 23.5262 27.5475 22.1963C27.6281 21.9435 27.8058 21.7332 28.0416 21.6115C28.1583 21.5512 28.2857 21.5145 28.4166 21.5035C28.5475 21.4925 28.6793 21.5074 28.8045 21.5473C28.9296 21.5872 29.0457 21.6514 29.146 21.7362C29.2464 21.8209 29.329 21.9247 29.3893 22.0414C29.4496 22.1581 29.4862 22.2855 29.4973 22.4164C29.5083 22.5473 29.4934 22.6791 29.4535 22.8043C29.0372 24.1103 28.3398 25.3092 27.4103 26.3166C26.4808 27.324 25.3418 28.1155 24.0735 28.6353C22.0973 29.4449 19.9041 29.5563 17.856 28.9513C15.8079 28.3462 14.0274 27.0608 12.8085 25.3073Z" fill="white"/>
  </g>
  <defs>
    <clipPath id="clip0_9_1414">
      <rect width="40" height="40" fill="white"/>
    </clipPath>
  </defs>
</svg>
