<svg preserveAspectRatio="none" width="100%" height="100%" overflow="visible" style="display: block;" viewBox="0 0 18 18" fill="none" xmlns="http://www.w3.org/2000/svg">
<path id="Vector (Stroke)" d="M16 0C16.5304 0 17.039 0.210865 17.4141 0.585938C17.7891 0.96101 18 1.46957 18 2V16C18 16.5304 17.7891 17.039 17.4141 17.4141C17.039 17.7891 16.5304 18 16 18H2C1.46957 18 0.96101 17.7891 0.585938 17.4141C0.210865 17.039 0 16.5304 0 16V2C0 1.46957 0.210865 0.96101 0.585938 0.585938C0.96101 0.210865 1.46957 0 2 0H16ZM2 1.5C1.86739 1.5 1.74025 1.55272 1.64648 1.64648C1.55272 1.74025 1.5 1.86739 1.5 2V16L1.50977 16.0977C1.52894 16.1939 1.57608 16.2831 1.64648 16.3535C1.74025 16.4473 1.86739 16.5 2 16.5H16C16.1326 16.5 16.2597 16.4473 16.3535 16.3535C16.4473 16.2597 16.5 16.1326 16.5 16V2C16.5 1.86739 16.4473 1.74025 16.3535 1.64648C16.2831 1.57608 16.1939 1.52894 16.0977 1.50977L16 1.5H2Z" fill="var(--fill-0, white)" fill-opacity="0.4"/>
</svg>
