<svg preserveAspectRatio="none" width="100%" height="100%" overflow="visible" style="display: block;" viewBox="0 0 24 22" fill="none" xmlns="http://www.w3.org/2000/svg">
<g id="Magnify Icon">
<path id="Shape" d="M0 9.44629C0 8.5332 0.171549 7.67822 0.514648 6.88135C0.857747 6.07894 1.33366 5.37337 1.94238 4.76465C2.55111 4.15592 3.25391 3.68001 4.05078 3.33691C4.85319 2.99382 5.71094 2.82227 6.62402 2.82227C7.53711 2.82227 8.39209 2.99382 9.18896 3.33691C9.99137 3.68001 10.6969 4.15592 11.3057 4.76465C11.9144 5.37337 12.3903 6.07894 12.7334 6.88135C13.0765 7.67822 13.248 8.5332 13.248 9.44629C13.248 10.2044 13.1263 10.9238 12.8828 11.6045C12.6449 12.2852 12.3128 12.9022 11.8867 13.4556L15.9458 17.5396C16.0343 17.6281 16.1007 17.7305 16.145 17.8467C16.1948 17.9629 16.2197 18.0874 16.2197 18.2202C16.2197 18.4028 16.1782 18.5688 16.0952 18.7183C16.0177 18.8677 15.9071 18.9839 15.7632 19.0669C15.6193 19.1554 15.4533 19.1997 15.2651 19.1997C15.1323 19.1997 15.005 19.1748 14.8833 19.125C14.7671 19.0807 14.6592 19.0116 14.5596 18.9175L10.4756 14.8252C9.93327 15.2126 9.33561 15.5169 8.68262 15.7383C8.02962 15.9596 7.34342 16.0703 6.62402 16.0703C5.71094 16.0703 4.85319 15.8988 4.05078 15.5557C3.25391 15.2126 2.55111 14.7367 1.94238 14.1279C1.33366 13.5192 0.857747 12.8164 0.514648 12.0195C0.171549 11.2171 0 10.3594 0 9.44629ZM1.41943 9.44629C1.41943 10.1657 1.55225 10.8408 1.81787 11.4717C2.08903 12.097 2.46257 12.6476 2.93848 13.1235C3.41992 13.5994 3.97331 13.973 4.59863 14.2441C5.22949 14.5153 5.90462 14.6509 6.62402 14.6509C7.34342 14.6509 8.01579 14.5153 8.64111 14.2441C9.27197 13.973 9.82536 13.5994 10.3013 13.1235C10.7772 12.6476 11.1507 12.097 11.4219 11.4717C11.693 10.8408 11.8286 10.1657 11.8286 9.44629C11.8286 8.72689 11.693 8.05452 11.4219 7.4292C11.1507 6.79834 10.7772 6.24495 10.3013 5.76904C9.82536 5.2876 9.27197 4.91406 8.64111 4.64844C8.01579 4.37728 7.34342 4.2417 6.62402 4.2417C5.90462 4.2417 5.22949 4.37728 4.59863 4.64844C3.97331 4.91406 3.41992 5.2876 2.93848 5.76904C2.46257 6.24495 2.08903 6.79834 1.81787 7.4292C1.55225 8.05452 1.41943 8.72689 1.41943 9.44629Z" fill="var(--fill-0, #5E5E5E)"/>
</g>
</svg>
