<svg width="24" height="24" viewBox="0 0 24 24" fill="none" xmlns="http://www.w3.org/2000/svg">
<g clip-path="url(#clip0_1287_28194)">
<path d="M19.6987 7.92195L12.7245 18.5801C12.6391 18.7092 12.5211 18.8154 12.3814 18.8888C12.2417 18.9623 12.0849 19.0005 11.9256 19C11.7664 18.9995 11.6098 18.9602 11.4707 18.8859C11.3315 18.8116 11.2142 18.7046 11.1298 18.575L4.29157 7.91684C4.09964 7.61849 3.99864 7.2745 4.00001 6.92387C4.0082 6.4059 4.23043 5.91226 4.61783 5.55151C5.00523 5.19077 5.52606 4.99247 6.06579 5.00022H17.9431C19.0782 4.99937 20 5.85755 20 6.91875C20 7.27107 19.8969 7.61912 19.6987 7.92195ZM5.97157 7.56367L11.0587 15.0928V6.80615H6.50312C5.9769 6.80615 5.74135 7.14055 5.97157 7.56538M12.9404 15.0945L18.0293 7.56367C18.2649 7.1397 18.024 6.80444 17.4969 6.80444H12.9422L12.9404 15.0945Z" fill="#FFFBFB"/>
</g>
<defs>
<clipPath id="clip0_1287_28194">
<rect width="24" height="24" fill="white"/>
</clipPath>
</defs>
</svg>
