<svg preserveAspectRatio="none" width="100%" height="100%" overflow="visible" style="display: block;" viewBox="0 0 12 12" fill="none" xmlns="http://www.w3.org/2000/svg">
<path id="Vector" d="M6.4457 0.274413L7.88611 3.27613C7.94755 3.38232 8.04312 3.50975 8.13869 3.58055C8.65751 3.96992 10.6713 3.89913 11.4359 4.12567C12.2005 4.35221 12.0025 4.69911 11.8933 5.14512L9.42891 7.75746C9.34699 8.77691 9.71563 9.89547 9.74293 10.9078C9.77024 11.9202 9.42208 12.168 8.65068 11.899C7.76323 11.5875 6.87578 10.745 5.95419 10.4618L3.12117 11.9061C2.68427 12.0901 2.19276 11.5521 2.19276 11.1344C2.19276 10.7167 2.40438 9.4353 2.56139 9.05301C3.04608 7.89197 5.16914 7.31145 6.17264 6.6389C7.17615 5.96634 6.36378 6.33448 6.09755 6.34864C4.8005 6.41235 2.64331 7.26189 1.52376 6.54686C1.27118 6.38403 0.213059 5.49201 0.0970076 5.26547C-0.162402 4.75575 0.124314 4.24602 0.649959 4.11151C1.61933 3.87081 2.78667 3.96992 3.75604 3.65134C3.85844 3.56639 3.91988 3.43896 3.98814 3.32568C4.44552 2.53986 4.93021 0.989446 5.43537 0.366448C5.94054 -0.256549 6.10438 0.054949 6.43888 0.281493L6.4457 0.274413Z" fill="var(--fill-0, #AFB0B0)"/>
</svg>
