<svg preserveAspectRatio="none" width="100%" height="100%" overflow="visible" style="display: block;" viewBox="0 0 17 16" fill="none" xmlns="http://www.w3.org/2000/svg">
<path id="Vector" d="M9.13141 0.365885L11.172 4.36817C11.259 4.50976 11.3944 4.67967 11.5298 4.77406C12.2648 5.29323 15.1177 5.19883 16.2009 5.50089C17.284 5.80295 17.0036 6.26548 16.8488 6.86016L13.3576 10.3433C13.2416 11.7025 13.7638 13.194 13.8025 14.5438C13.8412 15.8936 13.348 16.224 12.2551 15.8653C10.9979 15.45 9.74069 14.3267 8.43511 13.9491L4.42166 15.8747C3.80272 16.1202 3.10641 15.4028 3.10641 14.8459C3.10641 14.2889 3.40621 12.5804 3.62864 12.0707C4.31528 10.5226 7.32295 9.7486 8.74458 8.85186C10.1662 7.95513 9.01536 8.44597 8.63819 8.46485C6.80071 8.5498 3.74469 9.68252 2.15866 8.72915C1.80083 8.51205 0.301834 7.32269 0.137427 7.02063C-0.230069 6.34099 0.176112 5.66136 0.920775 5.48201C2.29405 5.16108 3.94778 5.29323 5.32106 4.86846C5.46612 4.75518 5.55316 4.58528 5.64987 4.43425C6.29782 3.38648 6.98446 1.31926 7.70011 0.488598C8.41576 -0.342065 8.64787 0.0732653 9.12174 0.375325L9.13141 0.365885Z" fill="var(--fill-0, black)"/>
</svg>
