<svg preserveAspectRatio="none" width="100%" height="100%" overflow="visible" style="display: block;" viewBox="0 0 16 16" fill="none" xmlns="http://www.w3.org/2000/svg">
<path id="Vector" d="M8.59427 0.365885L10.5148 4.36817C10.5967 4.50976 10.7242 4.67967 10.8516 4.77406C11.5433 5.29323 14.2285 5.19883 15.2479 5.50089C16.2673 5.80295 16.0034 6.26548 15.8577 6.86016L12.5719 10.3433C12.4627 11.7025 12.9542 13.194 12.9906 14.5438C13.027 15.8936 12.5628 16.224 11.5342 15.8653C10.351 15.45 9.1677 14.3267 7.93892 13.9491L4.16156 15.8747C3.57903 16.1202 2.92368 15.4028 2.92368 14.8459C2.92368 14.2889 3.20584 12.5804 3.41519 12.0707C4.06144 10.5226 6.89218 9.7486 8.23019 8.85186C9.56819 7.95513 8.48505 8.44597 8.13006 8.46485C6.40067 8.5498 3.52442 9.68252 2.03168 8.72915C1.6949 8.51205 0.284079 7.32269 0.129343 7.02063C-0.216535 6.34099 0.165752 5.66136 0.866612 5.48201C2.15911 5.16108 3.71556 5.29323 5.00805 4.86846C5.14459 4.75518 5.2265 4.58528 5.31752 4.43425C5.92736 3.38648 6.57361 1.31926 7.24717 0.488598C7.92072 -0.342065 8.13917 0.0732653 8.58517 0.375325L8.59427 0.365885Z" fill="var(--fill-0, white)"/>
</svg>
