<svg preserveAspectRatio="none" width="100%" height="100%" overflow="visible" style="display: block;" viewBox="0 0 43 41" fill="none" xmlns="http://www.w3.org/2000/svg">
<g id="Core Shine">
<path d="M27.9188 38.12C25.1488 36.56 22.2888 34.92 21.4988 34.92C20.7088 34.92 17.3788 36.34 14.6088 37.9C12.4388 39.12 9.28879 41 7.89879 40.05C6.50879 39.1 7.57879 35.54 8.06879 33.23C8.59879 30.72 9.64879 27.11 9.18879 26.17C8.57879 24.93 6.14879 23.06 4.00879 20.79C2.39879 19.09 -0.481209 16.33 0.0687913 14.61C0.618791 12.89 6.50879 12.5 8.49879 12.3C10.4188 12.11 13.5188 11.93 14.3188 11.18C15.0188 10.52 15.7188 8.86 16.9988 6.1C18.0788 3.75 20.1188 0 21.8388 0C23.5588 0 25.4588 3.72 26.6788 6.12C28.0488 8.82 29.7188 11.38 30.1788 11.77C30.6388 12.16 32.7988 12.28 34.7188 12.48C36.7088 12.68 41.6688 12.48 42.6988 14.4C43.7288 16.32 40.3788 19.15 38.7688 20.85C36.6288 23.11 34.5488 24.99 34.0488 25.93C33.7288 27.16 34.4588 29.53 34.9788 32.03C35.4588 34.31 36.7988 38.92 35.4188 39.96C34.0388 41 30.0788 39.34 27.9088 38.11L27.9188 38.12Z" fill="var(--fill-0, white)" style="mix-blend-mode:soft-light"/>
</g>
</svg>
