<svg preserveAspectRatio="none" width="100%" height="100%" overflow="visible" style="display: block;" viewBox="0 0 64 62" fill="none" xmlns="http://www.w3.org/2000/svg">
<g id="Base" filter="url(#filter0_d_40000136_17866)">
<path d="M31.5778 7C36.8478 7 39.4878 18.48 41.8778 19.42C44.2578 20.36 55.4478 19.75 56.6178 24.17C57.7778 28.6 48.2478 34.73 47.6178 38.13C46.9878 41.54 51.2178 50.88 48.0578 53.94C44.8878 57.01 35.4878 48.56 31.8578 48.56C28.2278 48.56 18.8278 57.01 15.6578 53.94C12.4978 50.88 16.7278 41.54 16.0978 38.13C15.4678 34.73 5.93779 28.6 7.09779 24.17C8.26779 19.75 19.4578 20.36 21.8378 19.42C24.2278 18.48 26.2978 7 31.5778 7Z" fill="var(--fill-0, #4C4C4C)"/>
<path d="M31.5781 6.5C33.0916 6.50012 34.3673 7.32679 35.4385 8.46582C36.5104 9.60563 37.4338 11.1172 38.2471 12.6191C38.6552 13.373 39.0408 14.134 39.4043 14.8516C39.7692 15.5718 40.1115 16.2467 40.4395 16.8418C40.7684 17.4388 41.0736 17.9381 41.3613 18.3115C41.6584 18.697 41.8921 18.8888 42.0605 18.9551H42.0615C42.3032 19.0505 42.6906 19.1376 43.2217 19.2188C43.7443 19.2986 44.3705 19.3674 45.0713 19.4395C46.4646 19.5826 48.142 19.7345 49.7803 19.9961C51.4149 20.2571 53.0524 20.633 54.3662 21.2412C55.5925 21.809 56.6172 22.6183 57.0273 23.8008L57.1016 24.042V24.043C57.4425 25.3451 56.9832 26.707 56.2197 27.9971C55.4507 29.2965 54.3168 30.6167 53.1562 31.875C51.9786 33.1518 50.7898 34.348 49.832 35.4629C49.3573 36.0155 48.9556 36.5311 48.6553 37.0039C48.3523 37.481 48.1715 37.8858 48.1094 38.2207C47.9709 38.97 48.0964 40.1064 48.3564 41.5176C48.4844 42.2116 48.6409 42.9517 48.8027 43.7207C48.9641 44.4875 49.1311 45.2825 49.2783 46.0752C49.5716 47.6548 49.7935 49.2617 49.7334 50.6797C49.6735 52.0904 49.3304 53.403 48.4053 54.2988C47.4174 55.2555 46.0032 55.2504 44.5732 54.8779C43.1263 54.5009 41.4948 53.7064 39.8926 52.8408C38.2573 51.9574 36.6904 51.0226 35.2451 50.2764C34.5325 49.9084 33.8757 49.6015 33.293 49.3867C32.704 49.1696 32.2246 49.0596 31.8574 49.0596C31.4904 49.0596 31.0115 49.1698 30.4229 49.3867C29.8402 49.6015 29.1833 49.9084 28.4707 50.2764C27.0255 51.0226 25.4584 51.9574 23.8232 52.8408C22.2208 53.7065 20.5887 54.501 19.1416 54.8779C17.7118 55.2504 16.2974 55.2555 15.3096 54.2988C14.3847 53.403 14.0423 52.0902 13.9824 50.6797C13.9223 49.2617 14.1442 47.6548 14.4375 46.0752C14.5847 45.2825 14.7517 44.4875 14.9131 43.7207C15.0749 42.9517 15.2305 42.2116 15.3584 41.5176C15.6185 40.1063 15.7449 38.9701 15.6064 38.2207C15.5443 37.8858 15.3635 37.4809 15.0605 37.0039C14.7603 36.5311 14.3585 36.0155 13.8838 35.4629C12.926 34.348 11.7363 33.1519 10.5586 31.875C9.39817 30.6169 8.26504 29.2964 7.49609 27.9971C6.73267 26.707 6.2733 25.3451 6.61426 24.043V24.042C6.96235 22.727 8.0415 21.8468 9.34961 21.2412C10.6635 20.633 12.3009 20.2571 13.9355 19.9961C15.5735 19.7346 17.2504 19.5826 18.6436 19.4395C19.3442 19.3675 19.9706 19.2986 20.4932 19.2188C21.0244 19.1376 21.4126 19.0505 21.6543 18.9551H21.6553C21.8185 18.8907 22.0422 18.7038 22.3223 18.3213C22.5938 17.9504 22.8773 17.4529 23.1797 16.8564C23.4809 16.2623 23.7915 15.5883 24.123 14.8682C24.4532 14.1509 24.8031 13.3899 25.1758 12.6357C25.9181 11.1336 26.7712 9.61903 27.792 8.47559C28.8141 7.33068 30.0582 6.5 31.5781 6.5Z" stroke="var(--stroke-0, black)"/>
</g>
<defs>
<filter id="filter0_d_40000136_17866" x="-0.000415802" y="0" width="63.7164" height="61.6109" filterUnits="userSpaceOnUse" color-interpolation-filters="sRGB">
<feFlood flood-opacity="0" result="BackgroundImageFix"/>
<feColorMatrix in="SourceAlpha" type="matrix" values="0 0 0 0 0 0 0 0 0 0 0 0 0 0 0 0 0 0 127 0" result="hardAlpha"/>
<feOffset/>
<feGaussianBlur stdDeviation="3"/>
<feComposite in2="hardAlpha" operator="out"/>
<feColorMatrix type="matrix" values="0 0 0 0 0 0 0 0 0 0 0 0 0 0 0 0 0 0 0.85 0"/>
<feBlend mode="normal" in2="BackgroundImageFix" result="effect1_dropShadow_40000136_17866"/>
<feBlend mode="normal" in="SourceGraphic" in2="effect1_dropShadow_40000136_17866" result="shape"/>
</filter>
</defs>
</svg>
