<svg preserveAspectRatio="none" width="100%" height="100%" overflow="visible" style="display: block;" viewBox="0 0 12 12" fill="none" xmlns="http://www.w3.org/2000/svg">
<g id="Group 48095594">
<path id="Star 1" d="M3.11805 0.626259C3.16402 0.0738584 3.81492 -0.195754 4.23804 0.162344C5.25501 1.02305 6.74499 1.02305 7.76196 0.162344C8.18508 -0.195754 8.83598 0.0738583 8.88195 0.626259C8.99245 1.95398 10.046 3.00755 11.3737 3.11805C11.9261 3.16402 12.1958 3.81492 11.8377 4.23804C10.977 5.25501 10.977 6.74499 11.8377 7.76196C12.1958 8.18508 11.9261 8.83598 11.3737 8.88195C10.046 8.99245 8.99245 10.046 8.88195 11.3737C8.83598 11.9261 8.18508 12.1958 7.76196 11.8377C6.74499 10.977 5.25501 10.977 4.23804 11.8377C3.81492 12.1958 3.16402 11.9261 3.11805 11.3737C3.00755 10.046 1.95398 8.99245 0.626259 8.88195C0.0738584 8.83598 -0.195754 8.18508 0.162344 7.76196C1.02305 6.74499 1.02305 5.25501 0.162344 4.23804C-0.195754 3.81492 0.0738584 3.16402 0.626259 3.11805C1.95398 3.00755 3.00755 1.95398 3.11805 0.626259Z" fill="var(--fill-0, #72C0EC)"/>
<path id="Done (Stroke)" d="M7.7237 3.5706C7.84104 3.39998 8.07453 3.35661 8.24518 3.47393C8.4157 3.59124 8.45902 3.82479 8.34186 3.99541L5.59162 7.99517C5.52564 8.09113 5.4186 8.15157 5.30231 8.15776C5.21516 8.16236 5.13038 8.13577 5.06134 8.08525L4.99762 8.02739L3.49762 6.2769L3.45441 6.21465C3.36979 6.06216 3.40106 5.86602 3.53864 5.74809C3.67624 5.6303 3.87482 5.62939 4.01252 5.73638L4.06745 5.78911L5.24958 7.16826L7.7237 3.5706Z" fill="var(--fill-0, black)"/>
</g>
</svg>
