<svg preserveAspectRatio="none" width="100%" height="100%" overflow="visible" style="display: block;" viewBox="0 0 20 20" fill="none" xmlns="http://www.w3.org/2000/svg">
<g id="material-symbols:box">
<path id="Vector" d="M4.16667 17.5C3.70833 17.5 3.31611 17.3369 2.99 17.0108C2.66389 16.6847 2.50056 16.2922 2.5 15.8333V5.4375C2.5 5.24306 2.53139 5.05556 2.59417 4.875C2.65694 4.69444 2.75056 4.52778 2.875 4.375L3.91667 3.10417C4.06944 2.90972 4.26028 2.76028 4.48917 2.65583C4.71806 2.55139 4.95778 2.49944 5.20833 2.5H14.7917C15.0417 2.5 15.2814 2.55222 15.5108 2.65667C15.7403 2.76111 15.9311 2.91028 16.0833 3.10417L17.125 4.375C17.25 4.52778 17.3439 4.69444 17.4067 4.875C17.4694 5.05556 17.5006 5.24306 17.5 5.4375V15.8333C17.5 16.2917 17.3369 16.6842 17.0108 17.0108C16.6847 17.3375 16.2922 17.5006 15.8333 17.5H4.16667ZM4.5 5H15.5L14.7917 4.16667H5.20833L4.5 5ZM13.3333 6.66667H6.66667V13.3333L10 11.6667L13.3333 13.3333V6.66667Z" fill="var(--fill-0, white)"/>
</g>
</svg>
