<svg preserveAspectRatio="none" width="100%" height="100%" overflow="visible" style="display: block;" viewBox="0 0 16 19" fill="none" xmlns="http://www.w3.org/2000/svg">
<g id="Group">
<path id="Vector" d="M13.5 5.16667H1.83333C1.61232 5.16667 1.40036 5.25446 1.24408 5.41074C1.0878 5.56702 1 5.77899 1 6V16.8333C1 17.0543 1.0878 17.2663 1.24408 17.4226C1.40036 17.5789 1.61232 17.6667 1.83333 17.6667H13.5C13.721 17.6667 13.933 17.5789 14.0893 17.4226C14.2455 17.2663 14.3333 17.0543 14.3333 16.8333V6C14.3333 5.77899 14.2455 5.56702 14.0893 5.41074C13.933 5.25446 13.721 5.16667 13.5 5.16667Z" fill="var(--fill-0, white)" stroke="var(--stroke-0, white)" stroke-width="2" stroke-linecap="round" stroke-linejoin="round"/>
<path id="Vector_2" d="M4.75 6.83333V3.91667C4.75 3.53364 4.82544 3.15437 4.97202 2.80051C5.11859 2.44664 5.33343 2.12511 5.60427 1.85427C5.87511 1.58343 6.19664 1.36859 6.55051 1.22202C6.90437 1.07544 7.28364 1 7.66667 1C8.04969 1 8.42896 1.07544 8.78283 1.22202C9.13669 1.36859 9.45822 1.58343 9.72906 1.85427C9.9999 2.12511 10.2147 2.44664 10.3613 2.80051C10.5079 3.15437 10.5833 3.53364 10.5833 3.91667V6.83333" stroke="var(--stroke-0, white)" stroke-width="2" stroke-linecap="round" stroke-linejoin="round"/>
</g>
</svg>
