<svg preserveAspectRatio="none" width="100%" height="100%" overflow="visible" style="display: block;" viewBox="0 0 173 157" fill="none" xmlns="http://www.w3.org/2000/svg">
<g id="Left Dots">
<circle id="Ellipse 2611" cx="5.54127" cy="5.54118" r="5.54118" fill="var(--fill-0, #484E6D)" fill-opacity="0.1"/>
<circle id="Ellipse 2612" cx="5.54124" cy="29.7839" r="5.54118" fill="var(--fill-0, #484E6D)" fill-opacity="0.1"/>
<circle id="Ellipse 2613" cx="5.54118" cy="54.0265" r="5.54118" fill="var(--fill-0, #484E6D)" fill-opacity="0.1"/>
<circle id="Ellipse 2614" cx="5.54121" cy="78.2692" r="5.54118" fill="var(--fill-0, #484E6D)" fill-opacity="0.1"/>
<circle id="Ellipse 2615" cx="5.54124" cy="102.512" r="5.54118" fill="var(--fill-0, #484E6D)" fill-opacity="0.1"/>
<circle id="Ellipse 2616" cx="5.54118" cy="126.755" r="5.54118" fill="var(--fill-0, #484E6D)" fill-opacity="0.1"/>
<circle id="Ellipse 2617" cx="5.54121" cy="150.997" r="5.54118" fill="var(--fill-0, #484E6D)" fill-opacity="0.1"/>
<circle id="Ellipse 2611_2" cx="28.6236" cy="5.54118" r="5.54118" fill="var(--fill-0, #484E6D)" fill-opacity="0.1"/>
<circle id="Ellipse 2612_2" cx="28.6236" cy="29.7839" r="5.54118" fill="var(--fill-0, #484E6D)" fill-opacity="0.1"/>
<circle id="Ellipse 2613_2" cx="28.6235" cy="54.0265" r="5.54118" fill="var(--fill-0, #484E6D)" fill-opacity="0.1"/>
<circle id="Ellipse 2614_2" cx="28.6236" cy="78.2692" r="5.54118" fill="var(--fill-0, #484E6D)" fill-opacity="0.1"/>
<circle id="Ellipse 2615_2" cx="28.6236" cy="102.512" r="5.54118" fill="var(--fill-0, #484E6D)" fill-opacity="0.1"/>
<circle id="Ellipse 2616_2" cx="28.6235" cy="126.755" r="5.54118" fill="var(--fill-0, #484E6D)" fill-opacity="0.1"/>
<circle id="Ellipse 2617_2" cx="28.6236" cy="150.997" r="5.54118" fill="var(--fill-0, #484E6D)" fill-opacity="0.1"/>
<circle id="Ellipse 2611_3" cx="51.706" cy="5.54118" r="5.54118" fill="var(--fill-0, #484E6D)" fill-opacity="0.1"/>
<circle id="Ellipse 2612_3" cx="51.706" cy="29.7839" r="5.54118" fill="var(--fill-0, #484E6D)" fill-opacity="0.1"/>
<circle id="Ellipse 2613_3" cx="51.7059" cy="54.0265" r="5.54118" fill="var(--fill-0, #484E6D)" fill-opacity="0.1"/>
<circle id="Ellipse 2614_3" cx="51.7059" cy="78.2692" r="5.54118" fill="var(--fill-0, #484E6D)" fill-opacity="0.1"/>
<circle id="Ellipse 2615_3" cx="51.706" cy="102.512" r="5.54118" fill="var(--fill-0, #484E6D)" fill-opacity="0.1"/>
<circle id="Ellipse 2616_3" cx="51.7059" cy="126.755" r="5.54118" fill="var(--fill-0, #484E6D)" fill-opacity="0.1"/>
<circle id="Ellipse 2617_3" cx="51.7059" cy="150.997" r="5.54118" fill="var(--fill-0, #484E6D)" fill-opacity="0.1"/>
<circle id="Ellipse 2611_4" cx="74.7883" cy="5.54118" r="5.54118" fill="var(--fill-0, #484E6D)" fill-opacity="0.1"/>
<circle id="Ellipse 2612_4" cx="74.7883" cy="29.7839" r="5.54118" fill="var(--fill-0, #484E6D)" fill-opacity="0.1"/>
<circle id="Ellipse 2613_4" cx="74.7883" cy="54.0265" r="5.54118" fill="var(--fill-0, #484E6D)" fill-opacity="0.1"/>
<circle id="Ellipse 2614_4" cx="74.7883" cy="78.2692" r="5.54118" fill="var(--fill-0, #484E6D)" fill-opacity="0.1"/>
<circle id="Ellipse 2615_4" cx="74.7883" cy="102.512" r="5.54118" fill="var(--fill-0, #484E6D)" fill-opacity="0.1"/>
<circle id="Ellipse 2616_4" cx="74.7883" cy="126.755" r="5.54118" fill="var(--fill-0, #484E6D)" fill-opacity="0.1"/>
<circle id="Ellipse 2617_4" cx="74.7883" cy="150.997" r="5.54118" fill="var(--fill-0, #484E6D)" fill-opacity="0.1"/>
<circle id="Ellipse 2611_5" cx="97.8707" cy="5.54118" r="5.54118" fill="var(--fill-0, #484E6D)" fill-opacity="0.1"/>
<circle id="Ellipse 2612_5" cx="97.8707" cy="29.7839" r="5.54118" fill="var(--fill-0, #484E6D)" fill-opacity="0.1"/>
<circle id="Ellipse 2613_5" cx="97.8706" cy="54.0265" r="5.54118" fill="var(--fill-0, #484E6D)" fill-opacity="0.1"/>
<circle id="Ellipse 2614_5" cx="97.8707" cy="78.2692" r="5.54118" fill="var(--fill-0, #484E6D)" fill-opacity="0.1"/>
<circle id="Ellipse 2615_5" cx="97.8707" cy="102.512" r="5.54118" fill="var(--fill-0, #484E6D)" fill-opacity="0.1"/>
<circle id="Ellipse 2616_5" cx="97.8706" cy="126.755" r="5.54118" fill="var(--fill-0, #484E6D)" fill-opacity="0.1"/>
<circle id="Ellipse 2617_5" cx="97.8707" cy="150.997" r="5.54118" fill="var(--fill-0, #484E6D)" fill-opacity="0.1"/>
<circle id="Ellipse 2611_6" cx="120.953" cy="5.54118" r="5.54118" fill="var(--fill-0, #484E6D)" fill-opacity="0.1"/>
<circle id="Ellipse 2612_6" cx="120.953" cy="29.7839" r="5.54118" fill="var(--fill-0, #484E6D)" fill-opacity="0.1"/>
<circle id="Ellipse 2613_6" cx="120.953" cy="54.0265" r="5.54118" fill="var(--fill-0, #484E6D)" fill-opacity="0.1"/>
<circle id="Ellipse 2614_6" cx="120.953" cy="78.2692" r="5.54118" fill="var(--fill-0, #484E6D)" fill-opacity="0.1"/>
<circle id="Ellipse 2615_6" cx="120.953" cy="102.512" r="5.54118" fill="var(--fill-0, #484E6D)" fill-opacity="0.1"/>
<circle id="Ellipse 2616_6" cx="120.953" cy="126.755" r="5.54118" fill="var(--fill-0, #484E6D)" fill-opacity="0.1"/>
<circle id="Ellipse 2617_6" cx="120.953" cy="150.997" r="5.54118" fill="var(--fill-0, #484E6D)" fill-opacity="0.1"/>
<circle id="Ellipse 2611_7" cx="144.035" cy="5.54118" r="5.54118" fill="var(--fill-0, #484E6D)" fill-opacity="0.1"/>
<circle id="Ellipse 2612_7" cx="144.035" cy="29.7839" r="5.54118" fill="var(--fill-0, #484E6D)" fill-opacity="0.1"/>
<circle id="Ellipse 2613_7" cx="144.035" cy="54.0265" r="5.54118" fill="var(--fill-0, #484E6D)" fill-opacity="0.1"/>
<circle id="Ellipse 2614_7" cx="144.035" cy="78.2692" r="5.54118" fill="var(--fill-0, #484E6D)" fill-opacity="0.1"/>
<circle id="Ellipse 2615_7" cx="144.035" cy="102.512" r="5.54118" fill="var(--fill-0, #484E6D)" fill-opacity="0.1"/>
<circle id="Ellipse 2616_7" cx="144.035" cy="126.755" r="5.54118" fill="var(--fill-0, #484E6D)" fill-opacity="0.1"/>
<circle id="Ellipse 2617_7" cx="144.035" cy="150.997" r="5.54118" fill="var(--fill-0, #484E6D)" fill-opacity="0.1"/>
<circle id="Ellipse 2611_8" cx="167.118" cy="5.54118" r="5.54118" fill="var(--fill-0, #484E6D)" fill-opacity="0.1"/>
<circle id="Ellipse 2612_8" cx="167.118" cy="29.7839" r="5.54118" fill="var(--fill-0, #484E6D)" fill-opacity="0.1"/>
<circle id="Ellipse 2613_8" cx="167.118" cy="54.0265" r="5.54118" fill="var(--fill-0, #484E6D)" fill-opacity="0.1"/>
<circle id="Ellipse 2614_8" cx="167.118" cy="78.2692" r="5.54118" fill="var(--fill-0, #484E6D)" fill-opacity="0.1"/>
<circle id="Ellipse 2615_8" cx="167.118" cy="102.512" r="5.54118" fill="var(--fill-0, #484E6D)" fill-opacity="0.1"/>
<circle id="Ellipse 2616_8" cx="167.118" cy="126.755" r="5.54118" fill="var(--fill-0, #484E6D)" fill-opacity="0.1"/>
<circle id="Ellipse 2617_8" cx="167.118" cy="150.997" r="5.54118" fill="var(--fill-0, #484E6D)" fill-opacity="0.1"/>
</g>
</svg>
