<svg preserveAspectRatio="none" width="100%" height="100%" overflow="visible" style="display: block;" viewBox="0 0 28 28" fill="none" xmlns="http://www.w3.org/2000/svg">
<g id="material-symbols:collections-bookmark-rounded">
<path id="Vector" d="M9.33333 21C8.69167 21 8.14256 20.7717 7.686 20.3152C7.22944 19.8586 7.00078 19.3091 7 18.6667V4.66667C7 4.025 7.22867 3.47589 7.686 3.01933C8.14333 2.56278 8.69244 2.33411 9.33333 2.33333H23.3333C23.975 2.33333 24.5245 2.562 24.9818 3.01933C25.4392 3.47667 25.6674 4.02578 25.6667 4.66667V18.6667C25.6667 19.3083 25.4384 19.8578 24.9818 20.3152C24.5253 20.7725 23.9758 21.0008 23.3333 21H9.33333ZM4.66667 25.6667C4.025 25.6667 3.47589 25.4384 3.01933 24.9818C2.56278 24.5253 2.33411 23.9758 2.33333 23.3333V8.16667C2.33333 7.83611 2.44533 7.55922 2.66933 7.336C2.89333 7.11278 3.17022 7.00078 3.5 7C3.82978 6.99922 4.10706 7.11122 4.33183 7.336C4.55661 7.56078 4.66822 7.83767 4.66667 8.16667V23.3333H19.8333C20.1639 23.3333 20.4412 23.4453 20.6652 23.6693C20.8892 23.8933 21.0008 24.1702 21 24.5C20.9992 24.8298 20.8872 25.1071 20.664 25.3318C20.4408 25.5566 20.1639 25.6682 19.8333 25.6667H4.66667ZM15.1667 11.8125C15.1667 12.0458 15.2639 12.2162 15.4583 12.3235C15.6528 12.4308 15.8472 12.4258 16.0417 12.3083L17.4708 11.4333C17.6653 11.3167 17.8694 11.2583 18.0833 11.2583C18.2972 11.2583 18.5014 11.3167 18.6958 11.4333L20.125 12.3083C20.3194 12.425 20.5139 12.4301 20.7083 12.3235C20.9028 12.2169 21 12.0466 21 11.8125V4.66667H15.1667V11.8125Z" fill="var(--fill-0, white)"/>
</g>
</svg>
