<svg preserveAspectRatio="none" width="100%" height="100%" overflow="visible" style="display: block;" viewBox="0 0 16 16" fill="none" xmlns="http://www.w3.org/2000/svg">
<g id="Group 48095593">
<path id="Star 1" d="M4.1574 0.835012C4.2187 0.0984779 5.08657 -0.261005 5.65072 0.216458C7.00668 1.36406 8.99332 1.36406 10.3493 0.216458C10.9134 -0.261005 11.7813 0.0984778 11.8426 0.835011C11.9899 2.6053 13.3947 4.01007 15.165 4.1574C15.9015 4.2187 16.261 5.08657 15.7835 5.65072C14.6359 7.00668 14.6359 8.99332 15.7835 10.3493C16.261 10.9134 15.9015 11.7813 15.165 11.8426C13.3947 11.9899 11.9899 13.3947 11.8426 15.165C11.7813 15.9015 10.9134 16.261 10.3493 15.7835C8.99332 14.6359 7.00668 14.6359 5.65072 15.7835C5.08657 16.261 4.2187 15.9015 4.1574 15.165C4.01007 13.3947 2.6053 11.9899 0.835012 11.8426C0.0984779 11.7813 -0.261005 10.9134 0.216458 10.3493C1.36406 8.99332 1.36406 7.00668 0.216458 5.65072C-0.261005 5.08657 0.0984778 4.2187 0.835011 4.1574C2.6053 4.01007 4.01007 2.6053 4.1574 0.835012Z" fill="var(--fill-0, #72C0EC)"/>
<path id="Done" d="M5.04362 8.04362L7.04362 10.377L10.7103 5.04362" stroke="var(--stroke-0, black)" stroke-linecap="round" stroke-linejoin="round"/>
</g>
</svg>
