<svg width="12" height="12" viewBox="0 0 12 12" fill="none" xmlns="http://www.w3.org/2000/svg">
<path d="M0.292893 0.292893C0.683417 -0.0976311 1.31643 -0.0976311 1.70696 0.292893L5.99992 4.58586L10.2929 0.292893L10.3691 0.224534C10.7618 -0.095817 11.3408 -0.0732233 11.707 0.292893C12.0731 0.659009 12.0957 1.23801 11.7753 1.63078L11.707 1.70696L7.41399 5.99992L11.707 10.2929L11.7753 10.3691C12.0957 10.7618 12.0731 11.3408 11.707 11.707C11.3408 12.0731 10.7618 12.0957 10.3691 11.7753L10.2929 11.707L5.99992 7.41399L1.70696 11.707C1.31643 12.0975 0.683417 12.0975 0.292893 11.707C-0.0976311 11.3164 -0.0976311 10.6834 0.292893 10.2929L4.58586 5.99992L0.292893 1.70696C-0.0976311 1.31643 -0.0976311 0.683417 0.292893 0.292893Z" fill="white"/>
</svg>
