<svg width="173" height="100" viewBox="0 0 173 100" fill="none" xmlns="http://www.w3.org/2000/svg">
<circle cx="5.54118" cy="1.78337" r="5.54118" fill="#FFF" fill-opacity="0.1"/>
<circle cx="5.54118" cy="26.0265" r="5.54118" fill="#FFF" fill-opacity="0.1"/>
<circle cx="5.54118" cy="50.2697" r="5.54118" fill="#FFF" fill-opacity="0.1"/>
<circle cx="5.54118" cy="74.5119" r="5.54118" fill="#FFF" fill-opacity="0.1"/>
<circle cx="5.54118" cy="98.7541" r="5.54118" fill="#FFF" fill-opacity="0.1"/>
<circle cx="28.6232" cy="1.78337" r="5.54118" fill="#FFF" fill-opacity="0.1"/>
<circle cx="28.6232" cy="26.0265" r="5.54118" fill="#FFF" fill-opacity="0.1"/>
<circle cx="28.6232" cy="50.2697" r="5.54118" fill="#FFF" fill-opacity="0.1"/>
<circle cx="28.6232" cy="74.5119" r="5.54118" fill="#FFF" fill-opacity="0.1"/>
<circle cx="28.6232" cy="98.7541" r="5.54118" fill="#FFF" fill-opacity="0.1"/>
<circle cx="51.7052" cy="1.78337" r="5.54118" fill="#FFF" fill-opacity="0.1"/>
<circle cx="51.7052" cy="26.0265" r="5.54118" fill="#FFF" fill-opacity="0.1"/>
<circle cx="51.7052" cy="50.2697" r="5.54118" fill="#FFF" fill-opacity="0.1"/>
<circle cx="51.7052" cy="74.5119" r="5.54118" fill="#FFF" fill-opacity="0.1"/>
<circle cx="51.7052" cy="98.7541" r="5.54118" fill="#FFF" fill-opacity="0.1"/>
<circle cx="74.7873" cy="1.78337" r="5.54118" fill="#FFF" fill-opacity="0.1"/>
<circle cx="74.7873" cy="26.0265" r="5.54118" fill="#FFF" fill-opacity="0.1"/>
<circle cx="74.7873" cy="50.2697" r="5.54118" fill="#FFF" fill-opacity="0.1"/>
<circle cx="74.7873" cy="74.5119" r="5.54118" fill="#FFF" fill-opacity="0.1"/>
<circle cx="74.7873" cy="98.7541" r="5.54118" fill="#FFF" fill-opacity="0.1"/>
<circle cx="97.8693" cy="1.78337" r="5.54118" fill="#FFF" fill-opacity="0.1"/>
<circle cx="97.8693" cy="26.0265" r="5.54118" fill="#FFF" fill-opacity="0.1"/>
<circle cx="97.8693" cy="50.2697" r="5.54118" fill="#FFF" fill-opacity="0.1"/>
<circle cx="97.8693" cy="74.5119" r="5.54118" fill="#FFF" fill-opacity="0.1"/>
<circle cx="97.8693" cy="98.7541" r="5.54118" fill="#FFF" fill-opacity="0.1"/>
<circle cx="120.951" cy="1.78337" r="5.54118" fill="#FFF" fill-opacity="0.1"/>
<circle cx="120.951" cy="26.0265" r="5.54118" fill="#FFF" fill-opacity="0.1"/>
<circle cx="120.951" cy="50.2697" r="5.54118" fill="#FFF" fill-opacity="0.1"/>
<circle cx="120.951" cy="74.5119" r="5.54118" fill="#FFF" fill-opacity="0.1"/>
<circle cx="120.951" cy="98.7541" r="5.54118" fill="#FFF" fill-opacity="0.1"/>
<circle cx="144.037" cy="1.78337" r="5.54118" fill="#FFF" fill-opacity="0.1"/>
<circle cx="144.037" cy="26.0265" r="5.54118" fill="#FFF" fill-opacity="0.1"/>
<circle cx="144.037" cy="50.2697" r="5.54118" fill="#FFF" fill-opacity="0.1"/>
<circle cx="144.037" cy="74.5119" r="5.54118" fill="#FFF" fill-opacity="0.1"/>
<circle cx="144.037" cy="98.7541" r="5.54118" fill="#FFF" fill-opacity="0.1"/>
<circle cx="167.119" cy="1.78337" r="5.54118" fill="#FFF" fill-opacity="0.1"/>
<circle cx="167.119" cy="26.0265" r="5.54118" fill="#FFF" fill-opacity="0.1"/>
<circle cx="167.119" cy="50.2697" r="5.54118" fill="#FFF" fill-opacity="0.1"/>
<circle cx="167.119" cy="74.5119" r="5.54118" fill="#FFF" fill-opacity="0.1"/>
<circle cx="167.119" cy="98.7541" r="5.54118" fill="#FFF" fill-opacity="0.1"/>
</svg>
