<svg width="21" height="19" viewBox="0 0 21 19" fill="none" xmlns="http://www.w3.org/2000/svg">
<path d="M19.9783 3.85195L17.8519 0.486133C17.6627 0.185547 17.325 0 16.965 0H3.72439C3.36443 0 3.02674 0.185547 2.83748 0.486133L0.707401 3.85195C-0.391037 5.58867 0.581229 8.00449 2.63338 8.28281C2.78181 8.30137 2.93396 8.3125 3.0824 8.3125C4.05096 8.3125 4.91189 7.88945 5.50193 7.23633C6.09197 7.88945 6.95291 8.3125 7.92146 8.3125C8.89002 8.3125 9.75096 7.88945 10.341 7.23633C10.931 7.88945 11.792 8.3125 12.7605 8.3125C13.7328 8.3125 14.59 7.88945 15.1801 7.23633C15.7738 7.88945 16.631 8.3125 17.5996 8.3125C17.7517 8.3125 17.9002 8.30137 18.0486 8.28281C20.1082 8.0082 21.0842 5.59238 19.982 3.85195H19.9783ZM18.2008 9.45918H18.1971C18.0004 9.48516 17.8 9.5 17.5959 9.5C17.1357 9.5 16.6941 9.42949 16.2822 9.30332V14.25H4.40721V9.29961C3.99158 9.42949 3.54627 9.5 3.08611 9.5C2.88201 9.5 2.67791 9.48516 2.48123 9.45918H2.47752C2.32537 9.43691 2.17693 9.41094 2.03221 9.37383V16.625C2.03221 17.935 3.09724 19 4.40721 19H16.2822C17.5922 19 18.6572 17.935 18.6572 16.625V9.37383C18.5088 9.41094 18.3603 9.44063 18.2008 9.45918Z" fill="#AFB0B0"/>
</svg>
