<svg preserveAspectRatio="none" width="100%" height="100%" overflow="visible" style="display: block;" viewBox="0 0 28 28" fill="none" xmlns="http://www.w3.org/2000/svg">
<g id="token:ton" clip-path="url(#clip0_863_8535)">
<circle id="Ellipse 69" cx="14" cy="14" r="14" fill="var(--fill-0, #FED999)" fill-opacity="0.25"/>
<path id="Vector" d="M14.3557 6.34302L16.2229 10.0952C16.3026 10.2279 16.4264 10.3872 16.5503 10.4757C17.2229 10.9624 19.8335 10.8739 20.8246 11.1571C21.8157 11.4403 21.5591 11.8739 21.4175 12.4314L18.2229 15.6968C18.1167 16.9711 18.5945 18.3693 18.6299 19.6348C18.6653 20.9003 18.214 21.21 17.214 20.8737C16.0636 20.4843 14.9132 19.4313 13.7185 19.0773L10.046 20.8826C9.47967 21.1127 8.84252 20.4401 8.84252 19.918C8.84252 19.3959 9.11685 17.7941 9.32038 17.3163C9.94869 15.865 12.7009 15.1393 14.0017 14.2986C15.3026 13.4579 14.2495 13.9181 13.9044 13.9358C12.223 14.0154 9.42658 15.0774 7.97528 14.1836C7.64785 13.98 6.27619 12.865 6.12575 12.5818C5.78948 11.9447 6.16115 11.3075 6.84255 11.1394C8.09917 10.8385 9.61241 10.9624 10.869 10.5642C11.0018 10.458 11.0814 10.2987 11.1699 10.1571C11.7628 9.17482 12.3911 7.23681 13.046 6.45806C13.7008 5.67931 13.9132 6.06869 14.3468 6.35187L14.3557 6.34302Z" fill="var(--fill-0, #FFA100)"/>
</g>
<defs>
<clipPath id="clip0_863_8535">
<rect width="28" height="28" fill="white"/>
</clipPath>
</defs>
</svg>
