<svg preserveAspectRatio="none" width="100%" height="100%" overflow="visible" style="display: block;" viewBox="0 0 16 16" fill="none" xmlns="http://www.w3.org/2000/svg">
<g id="bi:lightning-fill">
<path id="Vector" d="M6.08011 1.31411C6.10677 1.2234 6.1621 1.14377 6.23781 1.08714C6.31352 1.03052 6.40554 0.999945 6.50008 1H9.99987C10.0692 1.00005 10.1374 1.01656 10.1991 1.04816C10.2607 1.07976 10.314 1.12556 10.3545 1.18177C10.395 1.23799 10.4216 1.30301 10.432 1.3715C10.4425 1.43999 10.4365 1.50998 10.4146 1.57572L8.85719 6.24969H12.1872C12.2692 6.24963 12.3495 6.27258 12.419 6.31592C12.4885 6.35926 12.5445 6.42125 12.5805 6.49484C12.6165 6.56842 12.6311 6.65064 12.6227 6.73213C12.6143 6.81362 12.5831 6.89111 12.5328 6.95577L6.40821 14.8303C6.34547 14.9114 6.25625 14.9678 6.15614 14.9898C6.05602 15.0118 5.95136 14.9979 5.86042 14.9507C5.76948 14.9034 5.69803 14.8256 5.65855 14.731C5.61906 14.6364 5.61405 14.531 5.64438 14.4331L7.22016 9.31201H4.31271C4.2447 9.31205 4.17761 9.29623 4.11678 9.2658C4.05595 9.23538 4.00305 9.1912 3.96228 9.13675C3.92151 9.08231 3.894 9.01911 3.88193 8.95218C3.86985 8.88525 3.87356 8.81642 3.89274 8.75116L6.08011 1.31411Z" fill="var(--fill-0, #49DF64)"/>
</g>
</svg>
