<svg preserveAspectRatio="none" width="100%" height="100%" overflow="visible" style="display: block;" viewBox="0 0 20 20" fill="none" xmlns="http://www.w3.org/2000/svg">
<g id="token:ton">
<path id="Vector" d="M17.2175 6.01667L10.6792 16.4283C10.5992 16.5544 10.4885 16.6582 10.3576 16.7299C10.2266 16.8016 10.0796 16.839 9.93029 16.8385C9.78097 16.838 9.63421 16.7997 9.50373 16.7271C9.37325 16.6545 9.2633 16.55 9.18417 16.4233L2.77333 6.01167C2.5934 5.72022 2.49871 5.38419 2.5 5.04167C2.50768 4.53567 2.71602 4.05345 3.0792 3.70105C3.44239 3.34864 3.93067 3.15493 4.43667 3.1625H15.5717C16.6358 3.16167 17.5 4 17.5 5.03667C17.5 5.38083 17.4033 5.72083 17.2175 6.01667ZM4.34833 5.66667L9.1175 13.0217V4.92667H4.84667C4.35333 4.92667 4.1325 5.25333 4.34833 5.66833M10.8817 13.0233L15.6525 5.66667C15.8733 5.2525 15.6475 4.925 15.1533 4.925H10.8833L10.8817 13.0233Z" fill="var(--fill-0, #FFFBFB)"/>
</g>
</svg>
