<svg preserveAspectRatio="none" width="100%" height="100%" overflow="visible" style="display: block;" viewBox="0 0 28 28" fill="none" xmlns="http://www.w3.org/2000/svg">
<g id="token:ton" clip-path="url(#clip0_863_8495)">
<circle id="Ellipse 69" cx="14" cy="14" r="14" fill="var(--fill-0, #007AFF)"/>
<path id="Vector" d="M21.4848 10.922L14.7043 21.5801C14.6214 21.7092 14.5066 21.8154 14.3708 21.8888C14.235 21.9623 14.0826 22.0005 13.9277 22C13.7729 21.9995 13.6207 21.9602 13.4854 21.8859C13.35 21.8116 13.236 21.7046 13.154 21.575L6.50569 10.9168C6.31909 10.6185 6.2209 10.2745 6.22224 9.92387C6.2302 9.4059 6.44626 8.91226 6.82289 8.55151C7.19952 8.19077 7.70589 7.99247 8.23063 8.00022H19.778C20.8816 7.99937 21.7778 8.85755 21.7778 9.91875C21.7778 10.2711 21.6775 10.6191 21.4848 10.922ZM8.13902 10.5637L13.0848 18.0928V9.80615H8.65581C8.14421 9.80615 7.9152 10.1406 8.13902 10.5654M14.9143 18.0945L19.8619 10.5637C20.0909 10.1397 19.8567 9.80444 19.3442 9.80444H14.9161L14.9143 18.0945Z" fill="var(--fill-0, white)"/>
</g>
<defs>
<clipPath id="clip0_863_8495">
<rect width="28" height="28" fill="white"/>
</clipPath>
</defs>
</svg>
