<svg width="28" height="29" viewBox="0 0 28 29" fill="none" xmlns="http://www.w3.org/2000/svg">
<g clip-path="url(#clip0_676_6476)">
<circle cx="14" cy="14.5" r="14" fill="#007AFF"/>
<path d="M21.4852 11.422L14.7048 22.0801C14.6218 22.2092 14.5071 22.3154 14.3713 22.3888C14.2355 22.4623 14.083 22.5005 13.9281 22.5C13.7733 22.4995 13.6211 22.4602 13.4858 22.3859C13.3505 22.3116 13.2365 22.2046 13.1544 22.075L6.50613 11.4168C6.31953 11.1185 6.22133 10.7745 6.22267 10.4239C6.23063 9.9059 6.44669 9.41226 6.82332 9.05151C7.19996 8.69077 7.70633 8.49247 8.23106 8.50022H19.7785C20.882 8.49937 21.7782 9.35755 21.7782 10.4188C21.7782 10.7711 21.678 11.1191 21.4852 11.422ZM8.13946 11.0637L13.0853 18.5928V10.3062H8.65625C8.14464 10.3062 7.91563 10.6406 8.13946 11.0654M14.9148 18.5945L19.8623 11.0637C20.0913 10.6397 19.8571 10.3044 19.3446 10.3044H14.9165L14.9148 18.5945Z" fill="white"/>
</g>
<defs>
<clipPath id="clip0_676_6476">
<rect width="28" height="28" fill="white" transform="translate(0 0.5)"/>
</clipPath>
</defs>
</svg>
