<svg preserveAspectRatio="none" width="100%" height="100%" overflow="visible" style="display: block;" viewBox="0 0 16 16" fill="none" xmlns="http://www.w3.org/2000/svg">
<g id="token:ton">
<path id="Vector" d="M13.774 4.81333L8.54333 13.1427C8.47935 13.2435 8.39083 13.3265 8.28606 13.3839C8.18129 13.4413 8.06369 13.4712 7.94423 13.4708C7.82477 13.4704 7.70737 13.4397 7.60298 13.3816C7.4986 13.3236 7.41064 13.24 7.34733 13.1387L2.21867 4.80933C2.07472 4.57617 1.99897 4.30735 2 4.03333C2.00614 3.62854 2.17282 3.24276 2.46336 2.96084C2.75391 2.67892 3.14454 2.52394 3.54933 2.53H12.4573C13.3087 2.52933 14 3.2 14 4.02933C14 4.30467 13.9227 4.57667 13.774 4.81333ZM3.47867 4.53333L7.294 10.4173V3.94133H3.87733C3.48267 3.94133 3.306 4.20267 3.47867 4.53467M8.70533 10.4187L12.522 4.53333C12.6987 4.202 12.518 3.94 12.1227 3.94H8.70667L8.70533 10.4187Z" fill="var(--fill-0, #007AFF)"/>
</g>
</svg>
