<svg width="96" height="96" viewBox="0 0 96 96" fill="none" xmlns="http://www.w3.org/2000/svg">
<circle cx="48" cy="48" r="48" fill="white" fill-opacity="0.15"/>
<path d="M72.8425 46.8386C70.5226 36.3506 67.0314 30.7528 61.8525 29.2237C60.7639 28.9044 59.6346 28.7448 58.5001 28.7501C57.0006 28.7501 55.6947 29.1154 54.3133 29.5026C52.6486 29.9697 50.7575 30.5001 48.0001 30.5001C45.2428 30.5001 43.3506 29.9708 41.6826 29.5037C40.3001 29.1154 38.9953 28.7501 37.5001 28.7501C36.327 28.746 35.159 28.905 34.0297 29.2226C28.8781 30.7451 25.389 36.3408 23.0353 46.832C20.5044 58.1217 21.7501 65.2497 26.5287 66.9034C27.1838 67.1343 27.873 67.2534 28.5675 67.2556C31.8411 67.2556 34.4661 64.5289 36.2598 62.2965C38.2865 59.77 40.6589 58.4881 48.0001 58.4881C54.5572 58.4881 57.2708 59.3773 59.6147 62.2965C61.088 64.1318 62.4803 65.4159 63.8694 66.2242C65.7167 67.2982 67.563 67.5367 69.3556 66.9209C72.1797 65.9573 73.7984 63.41 74.1681 59.3478C74.4492 56.2328 74.0161 52.1411 72.8425 46.8386ZM42.7501 46.2501H39.2501V49.7501C39.2501 50.2143 39.0658 50.6594 38.7376 50.9876C38.4094 51.3158 37.9643 51.5001 37.5001 51.5001C37.036 51.5001 36.5909 51.3158 36.2627 50.9876C35.9345 50.6594 35.7501 50.2143 35.7501 49.7501V46.2501H32.2501C31.786 46.2501 31.3409 46.0658 31.0127 45.7376C30.6845 45.4094 30.5001 44.9643 30.5001 44.5001C30.5001 44.036 30.6845 43.5909 31.0127 43.2627C31.3409 42.9345 31.786 42.7501 32.2501 42.7501H35.7501V39.2501C35.7501 38.786 35.9345 38.3409 36.2627 38.0127C36.5909 37.6845 37.036 37.5001 37.5001 37.5001C37.9643 37.5001 38.4094 37.6845 38.7376 38.0127C39.0658 38.3409 39.2501 38.786 39.2501 39.2501V42.7501H42.7501C43.2143 42.7501 43.6594 42.9345 43.9876 43.2627C44.3158 43.5909 44.5001 44.036 44.5001 44.5001C44.5001 44.9643 44.3158 45.4094 43.9876 45.7376C43.6594 46.0658 43.2143 46.2501 42.7501 46.2501ZM51.9376 46.6876C51.505 46.6876 51.0821 46.5593 50.7223 46.319C50.3626 46.0786 50.0822 45.737 49.9167 45.3372C49.7511 44.9375 49.7078 44.4977 49.7922 44.0734C49.8766 43.649 50.0849 43.2593 50.3908 42.9533C50.6968 42.6474 51.0866 42.4391 51.5109 42.3547C51.9352 42.2703 52.375 42.3136 52.7748 42.4791C53.1745 42.6447 53.5161 42.9251 53.7565 43.2848C53.9968 43.6446 54.1251 44.0675 54.1251 44.5001C54.1251 45.0803 53.8947 45.6367 53.4844 46.0469C53.0742 46.4572 52.5178 46.6876 51.9376 46.6876ZM56.7501 51.5001C56.3173 51.5001 55.8941 51.3717 55.5343 51.1311C55.1744 50.8905 54.894 50.5485 54.7286 50.1485C54.5632 49.7484 54.5202 49.3083 54.6051 48.8839C54.6899 48.4594 54.8988 48.0696 55.2053 47.7639C55.5118 47.4582 55.9021 47.2503 56.3267 47.1665C56.7514 47.0827 57.1914 47.1268 57.5911 47.2932C57.9907 47.4596 58.3319 47.7409 58.5716 48.1013C58.8114 48.4618 58.9387 48.8852 58.9376 49.3181C58.9362 49.8973 58.7051 50.4523 58.295 50.8614C57.8849 51.2704 57.3294 51.5001 56.7501 51.5001ZM56.7501 41.8751C56.3175 41.8751 55.8946 41.7468 55.5348 41.5065C55.1751 41.2661 54.8947 40.9245 54.7292 40.5247C54.5636 40.125 54.5203 39.6852 54.6047 39.2609C54.6891 38.8365 54.8974 38.4468 55.2033 38.1408C55.5093 37.8349 55.8991 37.6266 56.3234 37.5422C56.7477 37.4578 57.1875 37.5011 57.5873 37.6666C57.987 37.8322 58.3286 38.1126 58.569 38.4723C58.8093 38.832 58.9376 39.255 58.9376 39.6876C58.9376 40.2678 58.7072 40.8242 58.2969 41.2344C57.8867 41.6447 57.3303 41.8751 56.7501 41.8751ZM61.5626 46.6876C61.13 46.6876 60.7071 46.5593 60.3473 46.319C59.9876 46.0786 59.7072 45.737 59.5417 45.3372C59.3761 44.9375 59.3328 44.4977 59.4172 44.0734C59.5016 43.649 59.7099 43.2593 60.0158 42.9533C60.3218 42.6474 60.7116 42.4391 61.1359 42.3547C61.5602 42.2703 62 42.3136 62.3998 42.4791C62.7995 42.6447 63.1411 42.9251 63.3815 43.2848C63.6218 43.6446 63.7501 44.0675 63.7501 44.5001C63.7501 45.0803 63.5197 45.6367 63.1094 46.0469C62.6992 46.4572 62.1428 46.6876 61.5626 46.6876Z" fill="#797979"/>
<mask id="mask0_684_10514" style="mask-type:alpha" maskUnits="userSpaceOnUse" x="21" y="28" width="54" height="40">
<path d="M72.8425 46.8386C70.5226 36.3506 67.0314 30.7528 61.8525 29.2237C60.7639 28.9044 59.6346 28.7448 58.5001 28.7501C57.0006 28.7501 55.6947 29.1154 54.3133 29.5026C52.6486 29.9697 50.7575 30.5001 48.0001 30.5001C45.2428 30.5001 43.3506 29.9708 41.6826 29.5037C40.3001 29.1154 38.9953 28.7501 37.5001 28.7501C36.327 28.746 35.159 28.905 34.0297 29.2226C28.8781 30.7451 25.389 36.3408 23.0353 46.832C20.5044 58.1217 21.7501 65.2497 26.5287 66.9034C27.1838 67.1343 27.873 67.2534 28.5675 67.2556C31.8411 67.2556 34.4661 64.5289 36.2598 62.2965C38.2865 59.77 40.6589 58.4881 48.0001 58.4881C54.5572 58.4881 57.2708 59.3773 59.6147 62.2965C61.088 64.1318 62.4803 65.4159 63.8694 66.2242C65.7167 67.2982 67.563 67.5367 69.3556 66.9209C72.1797 65.9573 73.7984 63.41 74.1681 59.3478C74.4492 56.2328 74.0161 52.1411 72.8425 46.8386ZM42.7501 46.2501H39.2501V49.7501C39.2501 50.2143 39.0658 50.6594 38.7376 50.9876C38.4094 51.3158 37.9643 51.5001 37.5001 51.5001C37.036 51.5001 36.5909 51.3158 36.2627 50.9876C35.9345 50.6594 35.7501 50.2143 35.7501 49.7501V46.2501H32.2501C31.786 46.2501 31.3409 46.0658 31.0127 45.7376C30.6845 45.4094 30.5001 44.9643 30.5001 44.5001C30.5001 44.036 30.6845 43.5909 31.0127 43.2627C31.3409 42.9345 31.786 42.7501 32.2501 42.7501H35.7501V39.2501C35.7501 38.786 35.9345 38.3409 36.2627 38.0127C36.5909 37.6845 37.036 37.5001 37.5001 37.5001C37.9643 37.5001 38.4094 37.6845 38.7376 38.0127C39.0658 38.3409 39.2501 38.786 39.2501 39.2501V42.7501H42.7501C43.2143 42.7501 43.6594 42.9345 43.9876 43.2627C44.3158 43.5909 44.5001 44.036 44.5001 44.5001C44.5001 44.9643 44.3158 45.4094 43.9876 45.7376C43.6594 46.0658 43.2143 46.2501 42.7501 46.2501ZM51.9376 46.6876C51.505 46.6876 51.0821 46.5593 50.7223 46.319C50.3626 46.0786 50.0822 45.737 49.9167 45.3372C49.7511 44.9375 49.7078 44.4977 49.7922 44.0734C49.8766 43.649 50.0849 43.2593 50.3908 42.9533C50.6968 42.6474 51.0866 42.4391 51.5109 42.3547C51.9352 42.2703 52.375 42.3136 52.7748 42.4791C53.1745 42.6447 53.5161 42.9251 53.7565 43.2848C53.9968 43.6446 54.1251 44.0675 54.1251 44.5001C54.1251 45.0803 53.8947 45.6367 53.4844 46.0469C53.0742 46.4572 52.5178 46.6876 51.9376 46.6876ZM56.7501 51.5001C56.3173 51.5001 55.8941 51.3717 55.5343 51.1311C55.1744 50.8905 54.894 50.5485 54.7286 50.1485C54.5632 49.7484 54.5202 49.3083 54.6051 48.8839C54.6899 48.4594 54.8988 48.0696 55.2053 47.7639C55.5118 47.4582 55.9021 47.2503 56.3267 47.1665C56.7514 47.0827 57.1914 47.1268 57.5911 47.2932C57.9907 47.4596 58.3319 47.7409 58.5716 48.1013C58.8114 48.4618 58.9387 48.8852 58.9376 49.3181C58.9362 49.8973 58.7051 50.4523 58.295 50.8614C57.8849 51.2704 57.3294 51.5001 56.7501 51.5001ZM56.7501 41.8751C56.3175 41.8751 55.8946 41.7468 55.5348 41.5065C55.1751 41.2661 54.8947 40.9245 54.7292 40.5247C54.5636 40.125 54.5203 39.6852 54.6047 39.2609C54.6891 38.8365 54.8974 38.4468 55.2033 38.1408C55.5093 37.8349 55.8991 37.6266 56.3234 37.5422C56.7477 37.4578 57.1875 37.5011 57.5873 37.6666C57.987 37.8322 58.3286 38.1126 58.569 38.4723C58.8093 38.832 58.9376 39.255 58.9376 39.6876C58.9376 40.2678 58.7072 40.8242 58.2969 41.2344C57.8867 41.6447 57.3303 41.8751 56.7501 41.8751ZM61.5626 46.6876C61.13 46.6876 60.7071 46.5593 60.3473 46.319C59.9876 46.0786 59.7072 45.737 59.5417 45.3372C59.3761 44.9375 59.3328 44.4977 59.4172 44.0734C59.5016 43.649 59.7099 43.2593 60.0158 42.9533C60.3218 42.6474 60.7116 42.4391 61.1359 42.3547C61.5602 42.2703 62 42.3136 62.3998 42.4791C62.7995 42.6447 63.1411 42.9251 63.3815 43.2848C63.6218 43.6446 63.7501 44.0675 63.7501 44.5001C63.7501 45.0803 63.5197 45.6367 63.1094 46.0469C62.6992 46.4572 62.1428 46.6876 61.5626 46.6876Z" fill="#797979"/>
</mask>
<g mask="url(#mask0_684_10514)">
<circle cx="48" cy="81" r="32" fill="#696969"/>
</g>
</svg>
